%TF.GenerationSoftware,KiCad,Pcbnew,5.0.2+dfsg1-1~bpo9+1*%
%TF.CreationDate,2019-08-30T14:17:28+02:00*%
%TF.ProjectId,PROTOBOARD,50524f54-4f42-44f4-9152-442e6b696361,1.0*%
%TF.SameCoordinates,Original*%
%TF.FileFunction,Soldermask,Top*%
%TF.FilePolarity,Negative*%
%FSLAX46Y46*%
G04 Gerber Fmt 4.6, Leading zero omitted, Abs format (unit mm)*
G04 Created by KiCad (PCBNEW 5.0.2+dfsg1-1~bpo9+1) date Fri 30 Aug 2019 02:17:28 PM CEST*
%MOMM*%
%LPD*%
G01*
G04 APERTURE LIST*
%ADD10C,0.150000*%
%ADD11C,0.100000*%
G04 APERTURE END LIST*
D10*
X119380000Y-49784000D02*
X119380000Y-72136000D01*
X143256000Y-48260000D02*
X120904000Y-48260000D01*
X144780000Y-72136000D02*
X144780000Y-49784000D01*
X120904000Y-73660000D02*
X143256000Y-73660000D01*
X143256000Y-48260000D02*
G75*
G02X144780000Y-49784000I0J-1524000D01*
G01*
X119380000Y-49784000D02*
G75*
G02X120904000Y-48260000I1524000J0D01*
G01*
X120904000Y-73660000D02*
G75*
G02X119380000Y-72136000I0J1524000D01*
G01*
X144780000Y-72136000D02*
G75*
G02X143256000Y-73660000I-1524000J0D01*
G01*
D11*
G36*
X122030442Y-70225518D02*
X122096627Y-70232037D01*
X122209853Y-70266384D01*
X122266467Y-70283557D01*
X122405087Y-70357652D01*
X122422991Y-70367222D01*
X122458729Y-70396552D01*
X122560186Y-70479814D01*
X122643448Y-70581271D01*
X122672778Y-70617009D01*
X122672779Y-70617011D01*
X122756443Y-70773533D01*
X122756443Y-70773534D01*
X122807963Y-70943373D01*
X122825359Y-71120000D01*
X122807963Y-71296627D01*
X122773616Y-71409853D01*
X122756443Y-71466467D01*
X122682348Y-71605087D01*
X122672778Y-71622991D01*
X122643448Y-71658729D01*
X122560186Y-71760186D01*
X122458729Y-71843448D01*
X122422991Y-71872778D01*
X122422989Y-71872779D01*
X122266467Y-71956443D01*
X122209853Y-71973616D01*
X122096627Y-72007963D01*
X122030443Y-72014481D01*
X121964260Y-72021000D01*
X121875740Y-72021000D01*
X121809557Y-72014481D01*
X121743373Y-72007963D01*
X121630147Y-71973616D01*
X121573533Y-71956443D01*
X121417011Y-71872779D01*
X121417009Y-71872778D01*
X121381271Y-71843448D01*
X121279814Y-71760186D01*
X121196552Y-71658729D01*
X121167222Y-71622991D01*
X121157652Y-71605087D01*
X121083557Y-71466467D01*
X121066384Y-71409853D01*
X121032037Y-71296627D01*
X121014641Y-71120000D01*
X121032037Y-70943373D01*
X121083557Y-70773534D01*
X121083557Y-70773533D01*
X121167221Y-70617011D01*
X121167222Y-70617009D01*
X121196552Y-70581271D01*
X121279814Y-70479814D01*
X121381271Y-70396552D01*
X121417009Y-70367222D01*
X121434913Y-70357652D01*
X121573533Y-70283557D01*
X121630147Y-70266384D01*
X121743373Y-70232037D01*
X121809558Y-70225518D01*
X121875740Y-70219000D01*
X121964260Y-70219000D01*
X122030442Y-70225518D01*
X122030442Y-70225518D01*
G37*
G36*
X139810442Y-70225518D02*
X139876627Y-70232037D01*
X139989853Y-70266384D01*
X140046467Y-70283557D01*
X140185087Y-70357652D01*
X140202991Y-70367222D01*
X140238729Y-70396552D01*
X140340186Y-70479814D01*
X140423448Y-70581271D01*
X140452778Y-70617009D01*
X140452779Y-70617011D01*
X140536443Y-70773533D01*
X140536443Y-70773534D01*
X140587963Y-70943373D01*
X140605359Y-71120000D01*
X140587963Y-71296627D01*
X140553616Y-71409853D01*
X140536443Y-71466467D01*
X140462348Y-71605087D01*
X140452778Y-71622991D01*
X140423448Y-71658729D01*
X140340186Y-71760186D01*
X140238729Y-71843448D01*
X140202991Y-71872778D01*
X140202989Y-71872779D01*
X140046467Y-71956443D01*
X139989853Y-71973616D01*
X139876627Y-72007963D01*
X139810443Y-72014481D01*
X139744260Y-72021000D01*
X139655740Y-72021000D01*
X139589557Y-72014481D01*
X139523373Y-72007963D01*
X139410147Y-71973616D01*
X139353533Y-71956443D01*
X139197011Y-71872779D01*
X139197009Y-71872778D01*
X139161271Y-71843448D01*
X139059814Y-71760186D01*
X138976552Y-71658729D01*
X138947222Y-71622991D01*
X138937652Y-71605087D01*
X138863557Y-71466467D01*
X138846384Y-71409853D01*
X138812037Y-71296627D01*
X138794641Y-71120000D01*
X138812037Y-70943373D01*
X138863557Y-70773534D01*
X138863557Y-70773533D01*
X138947221Y-70617011D01*
X138947222Y-70617009D01*
X138976552Y-70581271D01*
X139059814Y-70479814D01*
X139161271Y-70396552D01*
X139197009Y-70367222D01*
X139214913Y-70357652D01*
X139353533Y-70283557D01*
X139410147Y-70266384D01*
X139523373Y-70232037D01*
X139589558Y-70225518D01*
X139655740Y-70219000D01*
X139744260Y-70219000D01*
X139810442Y-70225518D01*
X139810442Y-70225518D01*
G37*
G36*
X142350442Y-70225518D02*
X142416627Y-70232037D01*
X142529853Y-70266384D01*
X142586467Y-70283557D01*
X142725087Y-70357652D01*
X142742991Y-70367222D01*
X142778729Y-70396552D01*
X142880186Y-70479814D01*
X142963448Y-70581271D01*
X142992778Y-70617009D01*
X142992779Y-70617011D01*
X143076443Y-70773533D01*
X143076443Y-70773534D01*
X143127963Y-70943373D01*
X143145359Y-71120000D01*
X143127963Y-71296627D01*
X143093616Y-71409853D01*
X143076443Y-71466467D01*
X143002348Y-71605087D01*
X142992778Y-71622991D01*
X142963448Y-71658729D01*
X142880186Y-71760186D01*
X142778729Y-71843448D01*
X142742991Y-71872778D01*
X142742989Y-71872779D01*
X142586467Y-71956443D01*
X142529853Y-71973616D01*
X142416627Y-72007963D01*
X142350443Y-72014481D01*
X142284260Y-72021000D01*
X142195740Y-72021000D01*
X142129557Y-72014481D01*
X142063373Y-72007963D01*
X141950147Y-71973616D01*
X141893533Y-71956443D01*
X141737011Y-71872779D01*
X141737009Y-71872778D01*
X141701271Y-71843448D01*
X141599814Y-71760186D01*
X141516552Y-71658729D01*
X141487222Y-71622991D01*
X141477652Y-71605087D01*
X141403557Y-71466467D01*
X141386384Y-71409853D01*
X141352037Y-71296627D01*
X141334641Y-71120000D01*
X141352037Y-70943373D01*
X141403557Y-70773534D01*
X141403557Y-70773533D01*
X141487221Y-70617011D01*
X141487222Y-70617009D01*
X141516552Y-70581271D01*
X141599814Y-70479814D01*
X141701271Y-70396552D01*
X141737009Y-70367222D01*
X141754913Y-70357652D01*
X141893533Y-70283557D01*
X141950147Y-70266384D01*
X142063373Y-70232037D01*
X142129558Y-70225518D01*
X142195740Y-70219000D01*
X142284260Y-70219000D01*
X142350442Y-70225518D01*
X142350442Y-70225518D01*
G37*
G36*
X137270442Y-70225518D02*
X137336627Y-70232037D01*
X137449853Y-70266384D01*
X137506467Y-70283557D01*
X137645087Y-70357652D01*
X137662991Y-70367222D01*
X137698729Y-70396552D01*
X137800186Y-70479814D01*
X137883448Y-70581271D01*
X137912778Y-70617009D01*
X137912779Y-70617011D01*
X137996443Y-70773533D01*
X137996443Y-70773534D01*
X138047963Y-70943373D01*
X138065359Y-71120000D01*
X138047963Y-71296627D01*
X138013616Y-71409853D01*
X137996443Y-71466467D01*
X137922348Y-71605087D01*
X137912778Y-71622991D01*
X137883448Y-71658729D01*
X137800186Y-71760186D01*
X137698729Y-71843448D01*
X137662991Y-71872778D01*
X137662989Y-71872779D01*
X137506467Y-71956443D01*
X137449853Y-71973616D01*
X137336627Y-72007963D01*
X137270443Y-72014481D01*
X137204260Y-72021000D01*
X137115740Y-72021000D01*
X137049557Y-72014481D01*
X136983373Y-72007963D01*
X136870147Y-71973616D01*
X136813533Y-71956443D01*
X136657011Y-71872779D01*
X136657009Y-71872778D01*
X136621271Y-71843448D01*
X136519814Y-71760186D01*
X136436552Y-71658729D01*
X136407222Y-71622991D01*
X136397652Y-71605087D01*
X136323557Y-71466467D01*
X136306384Y-71409853D01*
X136272037Y-71296627D01*
X136254641Y-71120000D01*
X136272037Y-70943373D01*
X136323557Y-70773534D01*
X136323557Y-70773533D01*
X136407221Y-70617011D01*
X136407222Y-70617009D01*
X136436552Y-70581271D01*
X136519814Y-70479814D01*
X136621271Y-70396552D01*
X136657009Y-70367222D01*
X136674913Y-70357652D01*
X136813533Y-70283557D01*
X136870147Y-70266384D01*
X136983373Y-70232037D01*
X137049558Y-70225518D01*
X137115740Y-70219000D01*
X137204260Y-70219000D01*
X137270442Y-70225518D01*
X137270442Y-70225518D01*
G37*
G36*
X134730442Y-70225518D02*
X134796627Y-70232037D01*
X134909853Y-70266384D01*
X134966467Y-70283557D01*
X135105087Y-70357652D01*
X135122991Y-70367222D01*
X135158729Y-70396552D01*
X135260186Y-70479814D01*
X135343448Y-70581271D01*
X135372778Y-70617009D01*
X135372779Y-70617011D01*
X135456443Y-70773533D01*
X135456443Y-70773534D01*
X135507963Y-70943373D01*
X135525359Y-71120000D01*
X135507963Y-71296627D01*
X135473616Y-71409853D01*
X135456443Y-71466467D01*
X135382348Y-71605087D01*
X135372778Y-71622991D01*
X135343448Y-71658729D01*
X135260186Y-71760186D01*
X135158729Y-71843448D01*
X135122991Y-71872778D01*
X135122989Y-71872779D01*
X134966467Y-71956443D01*
X134909853Y-71973616D01*
X134796627Y-72007963D01*
X134730443Y-72014481D01*
X134664260Y-72021000D01*
X134575740Y-72021000D01*
X134509557Y-72014481D01*
X134443373Y-72007963D01*
X134330147Y-71973616D01*
X134273533Y-71956443D01*
X134117011Y-71872779D01*
X134117009Y-71872778D01*
X134081271Y-71843448D01*
X133979814Y-71760186D01*
X133896552Y-71658729D01*
X133867222Y-71622991D01*
X133857652Y-71605087D01*
X133783557Y-71466467D01*
X133766384Y-71409853D01*
X133732037Y-71296627D01*
X133714641Y-71120000D01*
X133732037Y-70943373D01*
X133783557Y-70773534D01*
X133783557Y-70773533D01*
X133867221Y-70617011D01*
X133867222Y-70617009D01*
X133896552Y-70581271D01*
X133979814Y-70479814D01*
X134081271Y-70396552D01*
X134117009Y-70367222D01*
X134134913Y-70357652D01*
X134273533Y-70283557D01*
X134330147Y-70266384D01*
X134443373Y-70232037D01*
X134509558Y-70225518D01*
X134575740Y-70219000D01*
X134664260Y-70219000D01*
X134730442Y-70225518D01*
X134730442Y-70225518D01*
G37*
G36*
X129650442Y-70225518D02*
X129716627Y-70232037D01*
X129829853Y-70266384D01*
X129886467Y-70283557D01*
X130025087Y-70357652D01*
X130042991Y-70367222D01*
X130078729Y-70396552D01*
X130180186Y-70479814D01*
X130263448Y-70581271D01*
X130292778Y-70617009D01*
X130292779Y-70617011D01*
X130376443Y-70773533D01*
X130376443Y-70773534D01*
X130427963Y-70943373D01*
X130445359Y-71120000D01*
X130427963Y-71296627D01*
X130393616Y-71409853D01*
X130376443Y-71466467D01*
X130302348Y-71605087D01*
X130292778Y-71622991D01*
X130263448Y-71658729D01*
X130180186Y-71760186D01*
X130078729Y-71843448D01*
X130042991Y-71872778D01*
X130042989Y-71872779D01*
X129886467Y-71956443D01*
X129829853Y-71973616D01*
X129716627Y-72007963D01*
X129650443Y-72014481D01*
X129584260Y-72021000D01*
X129495740Y-72021000D01*
X129429557Y-72014481D01*
X129363373Y-72007963D01*
X129250147Y-71973616D01*
X129193533Y-71956443D01*
X129037011Y-71872779D01*
X129037009Y-71872778D01*
X129001271Y-71843448D01*
X128899814Y-71760186D01*
X128816552Y-71658729D01*
X128787222Y-71622991D01*
X128777652Y-71605087D01*
X128703557Y-71466467D01*
X128686384Y-71409853D01*
X128652037Y-71296627D01*
X128634641Y-71120000D01*
X128652037Y-70943373D01*
X128703557Y-70773534D01*
X128703557Y-70773533D01*
X128787221Y-70617011D01*
X128787222Y-70617009D01*
X128816552Y-70581271D01*
X128899814Y-70479814D01*
X129001271Y-70396552D01*
X129037009Y-70367222D01*
X129054913Y-70357652D01*
X129193533Y-70283557D01*
X129250147Y-70266384D01*
X129363373Y-70232037D01*
X129429558Y-70225518D01*
X129495740Y-70219000D01*
X129584260Y-70219000D01*
X129650442Y-70225518D01*
X129650442Y-70225518D01*
G37*
G36*
X132190442Y-70225518D02*
X132256627Y-70232037D01*
X132369853Y-70266384D01*
X132426467Y-70283557D01*
X132565087Y-70357652D01*
X132582991Y-70367222D01*
X132618729Y-70396552D01*
X132720186Y-70479814D01*
X132803448Y-70581271D01*
X132832778Y-70617009D01*
X132832779Y-70617011D01*
X132916443Y-70773533D01*
X132916443Y-70773534D01*
X132967963Y-70943373D01*
X132985359Y-71120000D01*
X132967963Y-71296627D01*
X132933616Y-71409853D01*
X132916443Y-71466467D01*
X132842348Y-71605087D01*
X132832778Y-71622991D01*
X132803448Y-71658729D01*
X132720186Y-71760186D01*
X132618729Y-71843448D01*
X132582991Y-71872778D01*
X132582989Y-71872779D01*
X132426467Y-71956443D01*
X132369853Y-71973616D01*
X132256627Y-72007963D01*
X132190443Y-72014481D01*
X132124260Y-72021000D01*
X132035740Y-72021000D01*
X131969557Y-72014481D01*
X131903373Y-72007963D01*
X131790147Y-71973616D01*
X131733533Y-71956443D01*
X131577011Y-71872779D01*
X131577009Y-71872778D01*
X131541271Y-71843448D01*
X131439814Y-71760186D01*
X131356552Y-71658729D01*
X131327222Y-71622991D01*
X131317652Y-71605087D01*
X131243557Y-71466467D01*
X131226384Y-71409853D01*
X131192037Y-71296627D01*
X131174641Y-71120000D01*
X131192037Y-70943373D01*
X131243557Y-70773534D01*
X131243557Y-70773533D01*
X131327221Y-70617011D01*
X131327222Y-70617009D01*
X131356552Y-70581271D01*
X131439814Y-70479814D01*
X131541271Y-70396552D01*
X131577009Y-70367222D01*
X131594913Y-70357652D01*
X131733533Y-70283557D01*
X131790147Y-70266384D01*
X131903373Y-70232037D01*
X131969558Y-70225518D01*
X132035740Y-70219000D01*
X132124260Y-70219000D01*
X132190442Y-70225518D01*
X132190442Y-70225518D01*
G37*
G36*
X124570442Y-70225518D02*
X124636627Y-70232037D01*
X124749853Y-70266384D01*
X124806467Y-70283557D01*
X124945087Y-70357652D01*
X124962991Y-70367222D01*
X124998729Y-70396552D01*
X125100186Y-70479814D01*
X125183448Y-70581271D01*
X125212778Y-70617009D01*
X125212779Y-70617011D01*
X125296443Y-70773533D01*
X125296443Y-70773534D01*
X125347963Y-70943373D01*
X125365359Y-71120000D01*
X125347963Y-71296627D01*
X125313616Y-71409853D01*
X125296443Y-71466467D01*
X125222348Y-71605087D01*
X125212778Y-71622991D01*
X125183448Y-71658729D01*
X125100186Y-71760186D01*
X124998729Y-71843448D01*
X124962991Y-71872778D01*
X124962989Y-71872779D01*
X124806467Y-71956443D01*
X124749853Y-71973616D01*
X124636627Y-72007963D01*
X124570443Y-72014481D01*
X124504260Y-72021000D01*
X124415740Y-72021000D01*
X124349557Y-72014481D01*
X124283373Y-72007963D01*
X124170147Y-71973616D01*
X124113533Y-71956443D01*
X123957011Y-71872779D01*
X123957009Y-71872778D01*
X123921271Y-71843448D01*
X123819814Y-71760186D01*
X123736552Y-71658729D01*
X123707222Y-71622991D01*
X123697652Y-71605087D01*
X123623557Y-71466467D01*
X123606384Y-71409853D01*
X123572037Y-71296627D01*
X123554641Y-71120000D01*
X123572037Y-70943373D01*
X123623557Y-70773534D01*
X123623557Y-70773533D01*
X123707221Y-70617011D01*
X123707222Y-70617009D01*
X123736552Y-70581271D01*
X123819814Y-70479814D01*
X123921271Y-70396552D01*
X123957009Y-70367222D01*
X123974913Y-70357652D01*
X124113533Y-70283557D01*
X124170147Y-70266384D01*
X124283373Y-70232037D01*
X124349558Y-70225518D01*
X124415740Y-70219000D01*
X124504260Y-70219000D01*
X124570442Y-70225518D01*
X124570442Y-70225518D01*
G37*
G36*
X127110442Y-70225518D02*
X127176627Y-70232037D01*
X127289853Y-70266384D01*
X127346467Y-70283557D01*
X127485087Y-70357652D01*
X127502991Y-70367222D01*
X127538729Y-70396552D01*
X127640186Y-70479814D01*
X127723448Y-70581271D01*
X127752778Y-70617009D01*
X127752779Y-70617011D01*
X127836443Y-70773533D01*
X127836443Y-70773534D01*
X127887963Y-70943373D01*
X127905359Y-71120000D01*
X127887963Y-71296627D01*
X127853616Y-71409853D01*
X127836443Y-71466467D01*
X127762348Y-71605087D01*
X127752778Y-71622991D01*
X127723448Y-71658729D01*
X127640186Y-71760186D01*
X127538729Y-71843448D01*
X127502991Y-71872778D01*
X127502989Y-71872779D01*
X127346467Y-71956443D01*
X127289853Y-71973616D01*
X127176627Y-72007963D01*
X127110443Y-72014481D01*
X127044260Y-72021000D01*
X126955740Y-72021000D01*
X126889557Y-72014481D01*
X126823373Y-72007963D01*
X126710147Y-71973616D01*
X126653533Y-71956443D01*
X126497011Y-71872779D01*
X126497009Y-71872778D01*
X126461271Y-71843448D01*
X126359814Y-71760186D01*
X126276552Y-71658729D01*
X126247222Y-71622991D01*
X126237652Y-71605087D01*
X126163557Y-71466467D01*
X126146384Y-71409853D01*
X126112037Y-71296627D01*
X126094641Y-71120000D01*
X126112037Y-70943373D01*
X126163557Y-70773534D01*
X126163557Y-70773533D01*
X126247221Y-70617011D01*
X126247222Y-70617009D01*
X126276552Y-70581271D01*
X126359814Y-70479814D01*
X126461271Y-70396552D01*
X126497009Y-70367222D01*
X126514913Y-70357652D01*
X126653533Y-70283557D01*
X126710147Y-70266384D01*
X126823373Y-70232037D01*
X126889558Y-70225518D01*
X126955740Y-70219000D01*
X127044260Y-70219000D01*
X127110442Y-70225518D01*
X127110442Y-70225518D01*
G37*
G36*
X127110443Y-67685519D02*
X127176627Y-67692037D01*
X127289853Y-67726384D01*
X127346467Y-67743557D01*
X127485087Y-67817652D01*
X127502991Y-67827222D01*
X127538729Y-67856552D01*
X127640186Y-67939814D01*
X127723448Y-68041271D01*
X127752778Y-68077009D01*
X127752779Y-68077011D01*
X127836443Y-68233533D01*
X127836443Y-68233534D01*
X127887963Y-68403373D01*
X127905359Y-68580000D01*
X127887963Y-68756627D01*
X127853616Y-68869853D01*
X127836443Y-68926467D01*
X127762348Y-69065087D01*
X127752778Y-69082991D01*
X127723448Y-69118729D01*
X127640186Y-69220186D01*
X127538729Y-69303448D01*
X127502991Y-69332778D01*
X127502989Y-69332779D01*
X127346467Y-69416443D01*
X127289853Y-69433616D01*
X127176627Y-69467963D01*
X127110442Y-69474482D01*
X127044260Y-69481000D01*
X126955740Y-69481000D01*
X126889558Y-69474482D01*
X126823373Y-69467963D01*
X126710147Y-69433616D01*
X126653533Y-69416443D01*
X126497011Y-69332779D01*
X126497009Y-69332778D01*
X126461271Y-69303448D01*
X126359814Y-69220186D01*
X126276552Y-69118729D01*
X126247222Y-69082991D01*
X126237652Y-69065087D01*
X126163557Y-68926467D01*
X126146384Y-68869853D01*
X126112037Y-68756627D01*
X126094641Y-68580000D01*
X126112037Y-68403373D01*
X126163557Y-68233534D01*
X126163557Y-68233533D01*
X126247221Y-68077011D01*
X126247222Y-68077009D01*
X126276552Y-68041271D01*
X126359814Y-67939814D01*
X126461271Y-67856552D01*
X126497009Y-67827222D01*
X126514913Y-67817652D01*
X126653533Y-67743557D01*
X126710147Y-67726384D01*
X126823373Y-67692037D01*
X126889557Y-67685519D01*
X126955740Y-67679000D01*
X127044260Y-67679000D01*
X127110443Y-67685519D01*
X127110443Y-67685519D01*
G37*
G36*
X129650443Y-67685519D02*
X129716627Y-67692037D01*
X129829853Y-67726384D01*
X129886467Y-67743557D01*
X130025087Y-67817652D01*
X130042991Y-67827222D01*
X130078729Y-67856552D01*
X130180186Y-67939814D01*
X130263448Y-68041271D01*
X130292778Y-68077009D01*
X130292779Y-68077011D01*
X130376443Y-68233533D01*
X130376443Y-68233534D01*
X130427963Y-68403373D01*
X130445359Y-68580000D01*
X130427963Y-68756627D01*
X130393616Y-68869853D01*
X130376443Y-68926467D01*
X130302348Y-69065087D01*
X130292778Y-69082991D01*
X130263448Y-69118729D01*
X130180186Y-69220186D01*
X130078729Y-69303448D01*
X130042991Y-69332778D01*
X130042989Y-69332779D01*
X129886467Y-69416443D01*
X129829853Y-69433616D01*
X129716627Y-69467963D01*
X129650442Y-69474482D01*
X129584260Y-69481000D01*
X129495740Y-69481000D01*
X129429558Y-69474482D01*
X129363373Y-69467963D01*
X129250147Y-69433616D01*
X129193533Y-69416443D01*
X129037011Y-69332779D01*
X129037009Y-69332778D01*
X129001271Y-69303448D01*
X128899814Y-69220186D01*
X128816552Y-69118729D01*
X128787222Y-69082991D01*
X128777652Y-69065087D01*
X128703557Y-68926467D01*
X128686384Y-68869853D01*
X128652037Y-68756627D01*
X128634641Y-68580000D01*
X128652037Y-68403373D01*
X128703557Y-68233534D01*
X128703557Y-68233533D01*
X128787221Y-68077011D01*
X128787222Y-68077009D01*
X128816552Y-68041271D01*
X128899814Y-67939814D01*
X129001271Y-67856552D01*
X129037009Y-67827222D01*
X129054913Y-67817652D01*
X129193533Y-67743557D01*
X129250147Y-67726384D01*
X129363373Y-67692037D01*
X129429557Y-67685519D01*
X129495740Y-67679000D01*
X129584260Y-67679000D01*
X129650443Y-67685519D01*
X129650443Y-67685519D01*
G37*
G36*
X132190443Y-67685519D02*
X132256627Y-67692037D01*
X132369853Y-67726384D01*
X132426467Y-67743557D01*
X132565087Y-67817652D01*
X132582991Y-67827222D01*
X132618729Y-67856552D01*
X132720186Y-67939814D01*
X132803448Y-68041271D01*
X132832778Y-68077009D01*
X132832779Y-68077011D01*
X132916443Y-68233533D01*
X132916443Y-68233534D01*
X132967963Y-68403373D01*
X132985359Y-68580000D01*
X132967963Y-68756627D01*
X132933616Y-68869853D01*
X132916443Y-68926467D01*
X132842348Y-69065087D01*
X132832778Y-69082991D01*
X132803448Y-69118729D01*
X132720186Y-69220186D01*
X132618729Y-69303448D01*
X132582991Y-69332778D01*
X132582989Y-69332779D01*
X132426467Y-69416443D01*
X132369853Y-69433616D01*
X132256627Y-69467963D01*
X132190442Y-69474482D01*
X132124260Y-69481000D01*
X132035740Y-69481000D01*
X131969558Y-69474482D01*
X131903373Y-69467963D01*
X131790147Y-69433616D01*
X131733533Y-69416443D01*
X131577011Y-69332779D01*
X131577009Y-69332778D01*
X131541271Y-69303448D01*
X131439814Y-69220186D01*
X131356552Y-69118729D01*
X131327222Y-69082991D01*
X131317652Y-69065087D01*
X131243557Y-68926467D01*
X131226384Y-68869853D01*
X131192037Y-68756627D01*
X131174641Y-68580000D01*
X131192037Y-68403373D01*
X131243557Y-68233534D01*
X131243557Y-68233533D01*
X131327221Y-68077011D01*
X131327222Y-68077009D01*
X131356552Y-68041271D01*
X131439814Y-67939814D01*
X131541271Y-67856552D01*
X131577009Y-67827222D01*
X131594913Y-67817652D01*
X131733533Y-67743557D01*
X131790147Y-67726384D01*
X131903373Y-67692037D01*
X131969557Y-67685519D01*
X132035740Y-67679000D01*
X132124260Y-67679000D01*
X132190443Y-67685519D01*
X132190443Y-67685519D01*
G37*
G36*
X134730443Y-67685519D02*
X134796627Y-67692037D01*
X134909853Y-67726384D01*
X134966467Y-67743557D01*
X135105087Y-67817652D01*
X135122991Y-67827222D01*
X135158729Y-67856552D01*
X135260186Y-67939814D01*
X135343448Y-68041271D01*
X135372778Y-68077009D01*
X135372779Y-68077011D01*
X135456443Y-68233533D01*
X135456443Y-68233534D01*
X135507963Y-68403373D01*
X135525359Y-68580000D01*
X135507963Y-68756627D01*
X135473616Y-68869853D01*
X135456443Y-68926467D01*
X135382348Y-69065087D01*
X135372778Y-69082991D01*
X135343448Y-69118729D01*
X135260186Y-69220186D01*
X135158729Y-69303448D01*
X135122991Y-69332778D01*
X135122989Y-69332779D01*
X134966467Y-69416443D01*
X134909853Y-69433616D01*
X134796627Y-69467963D01*
X134730442Y-69474482D01*
X134664260Y-69481000D01*
X134575740Y-69481000D01*
X134509558Y-69474482D01*
X134443373Y-69467963D01*
X134330147Y-69433616D01*
X134273533Y-69416443D01*
X134117011Y-69332779D01*
X134117009Y-69332778D01*
X134081271Y-69303448D01*
X133979814Y-69220186D01*
X133896552Y-69118729D01*
X133867222Y-69082991D01*
X133857652Y-69065087D01*
X133783557Y-68926467D01*
X133766384Y-68869853D01*
X133732037Y-68756627D01*
X133714641Y-68580000D01*
X133732037Y-68403373D01*
X133783557Y-68233534D01*
X133783557Y-68233533D01*
X133867221Y-68077011D01*
X133867222Y-68077009D01*
X133896552Y-68041271D01*
X133979814Y-67939814D01*
X134081271Y-67856552D01*
X134117009Y-67827222D01*
X134134913Y-67817652D01*
X134273533Y-67743557D01*
X134330147Y-67726384D01*
X134443373Y-67692037D01*
X134509557Y-67685519D01*
X134575740Y-67679000D01*
X134664260Y-67679000D01*
X134730443Y-67685519D01*
X134730443Y-67685519D01*
G37*
G36*
X124570443Y-67685519D02*
X124636627Y-67692037D01*
X124749853Y-67726384D01*
X124806467Y-67743557D01*
X124945087Y-67817652D01*
X124962991Y-67827222D01*
X124998729Y-67856552D01*
X125100186Y-67939814D01*
X125183448Y-68041271D01*
X125212778Y-68077009D01*
X125212779Y-68077011D01*
X125296443Y-68233533D01*
X125296443Y-68233534D01*
X125347963Y-68403373D01*
X125365359Y-68580000D01*
X125347963Y-68756627D01*
X125313616Y-68869853D01*
X125296443Y-68926467D01*
X125222348Y-69065087D01*
X125212778Y-69082991D01*
X125183448Y-69118729D01*
X125100186Y-69220186D01*
X124998729Y-69303448D01*
X124962991Y-69332778D01*
X124962989Y-69332779D01*
X124806467Y-69416443D01*
X124749853Y-69433616D01*
X124636627Y-69467963D01*
X124570442Y-69474482D01*
X124504260Y-69481000D01*
X124415740Y-69481000D01*
X124349558Y-69474482D01*
X124283373Y-69467963D01*
X124170147Y-69433616D01*
X124113533Y-69416443D01*
X123957011Y-69332779D01*
X123957009Y-69332778D01*
X123921271Y-69303448D01*
X123819814Y-69220186D01*
X123736552Y-69118729D01*
X123707222Y-69082991D01*
X123697652Y-69065087D01*
X123623557Y-68926467D01*
X123606384Y-68869853D01*
X123572037Y-68756627D01*
X123554641Y-68580000D01*
X123572037Y-68403373D01*
X123623557Y-68233534D01*
X123623557Y-68233533D01*
X123707221Y-68077011D01*
X123707222Y-68077009D01*
X123736552Y-68041271D01*
X123819814Y-67939814D01*
X123921271Y-67856552D01*
X123957009Y-67827222D01*
X123974913Y-67817652D01*
X124113533Y-67743557D01*
X124170147Y-67726384D01*
X124283373Y-67692037D01*
X124349557Y-67685519D01*
X124415740Y-67679000D01*
X124504260Y-67679000D01*
X124570443Y-67685519D01*
X124570443Y-67685519D01*
G37*
G36*
X122030443Y-67685519D02*
X122096627Y-67692037D01*
X122209853Y-67726384D01*
X122266467Y-67743557D01*
X122405087Y-67817652D01*
X122422991Y-67827222D01*
X122458729Y-67856552D01*
X122560186Y-67939814D01*
X122643448Y-68041271D01*
X122672778Y-68077009D01*
X122672779Y-68077011D01*
X122756443Y-68233533D01*
X122756443Y-68233534D01*
X122807963Y-68403373D01*
X122825359Y-68580000D01*
X122807963Y-68756627D01*
X122773616Y-68869853D01*
X122756443Y-68926467D01*
X122682348Y-69065087D01*
X122672778Y-69082991D01*
X122643448Y-69118729D01*
X122560186Y-69220186D01*
X122458729Y-69303448D01*
X122422991Y-69332778D01*
X122422989Y-69332779D01*
X122266467Y-69416443D01*
X122209853Y-69433616D01*
X122096627Y-69467963D01*
X122030442Y-69474482D01*
X121964260Y-69481000D01*
X121875740Y-69481000D01*
X121809558Y-69474482D01*
X121743373Y-69467963D01*
X121630147Y-69433616D01*
X121573533Y-69416443D01*
X121417011Y-69332779D01*
X121417009Y-69332778D01*
X121381271Y-69303448D01*
X121279814Y-69220186D01*
X121196552Y-69118729D01*
X121167222Y-69082991D01*
X121157652Y-69065087D01*
X121083557Y-68926467D01*
X121066384Y-68869853D01*
X121032037Y-68756627D01*
X121014641Y-68580000D01*
X121032037Y-68403373D01*
X121083557Y-68233534D01*
X121083557Y-68233533D01*
X121167221Y-68077011D01*
X121167222Y-68077009D01*
X121196552Y-68041271D01*
X121279814Y-67939814D01*
X121381271Y-67856552D01*
X121417009Y-67827222D01*
X121434913Y-67817652D01*
X121573533Y-67743557D01*
X121630147Y-67726384D01*
X121743373Y-67692037D01*
X121809557Y-67685519D01*
X121875740Y-67679000D01*
X121964260Y-67679000D01*
X122030443Y-67685519D01*
X122030443Y-67685519D01*
G37*
G36*
X137270443Y-67685519D02*
X137336627Y-67692037D01*
X137449853Y-67726384D01*
X137506467Y-67743557D01*
X137645087Y-67817652D01*
X137662991Y-67827222D01*
X137698729Y-67856552D01*
X137800186Y-67939814D01*
X137883448Y-68041271D01*
X137912778Y-68077009D01*
X137912779Y-68077011D01*
X137996443Y-68233533D01*
X137996443Y-68233534D01*
X138047963Y-68403373D01*
X138065359Y-68580000D01*
X138047963Y-68756627D01*
X138013616Y-68869853D01*
X137996443Y-68926467D01*
X137922348Y-69065087D01*
X137912778Y-69082991D01*
X137883448Y-69118729D01*
X137800186Y-69220186D01*
X137698729Y-69303448D01*
X137662991Y-69332778D01*
X137662989Y-69332779D01*
X137506467Y-69416443D01*
X137449853Y-69433616D01*
X137336627Y-69467963D01*
X137270442Y-69474482D01*
X137204260Y-69481000D01*
X137115740Y-69481000D01*
X137049558Y-69474482D01*
X136983373Y-69467963D01*
X136870147Y-69433616D01*
X136813533Y-69416443D01*
X136657011Y-69332779D01*
X136657009Y-69332778D01*
X136621271Y-69303448D01*
X136519814Y-69220186D01*
X136436552Y-69118729D01*
X136407222Y-69082991D01*
X136397652Y-69065087D01*
X136323557Y-68926467D01*
X136306384Y-68869853D01*
X136272037Y-68756627D01*
X136254641Y-68580000D01*
X136272037Y-68403373D01*
X136323557Y-68233534D01*
X136323557Y-68233533D01*
X136407221Y-68077011D01*
X136407222Y-68077009D01*
X136436552Y-68041271D01*
X136519814Y-67939814D01*
X136621271Y-67856552D01*
X136657009Y-67827222D01*
X136674913Y-67817652D01*
X136813533Y-67743557D01*
X136870147Y-67726384D01*
X136983373Y-67692037D01*
X137049557Y-67685519D01*
X137115740Y-67679000D01*
X137204260Y-67679000D01*
X137270443Y-67685519D01*
X137270443Y-67685519D01*
G37*
G36*
X139810443Y-67685519D02*
X139876627Y-67692037D01*
X139989853Y-67726384D01*
X140046467Y-67743557D01*
X140185087Y-67817652D01*
X140202991Y-67827222D01*
X140238729Y-67856552D01*
X140340186Y-67939814D01*
X140423448Y-68041271D01*
X140452778Y-68077009D01*
X140452779Y-68077011D01*
X140536443Y-68233533D01*
X140536443Y-68233534D01*
X140587963Y-68403373D01*
X140605359Y-68580000D01*
X140587963Y-68756627D01*
X140553616Y-68869853D01*
X140536443Y-68926467D01*
X140462348Y-69065087D01*
X140452778Y-69082991D01*
X140423448Y-69118729D01*
X140340186Y-69220186D01*
X140238729Y-69303448D01*
X140202991Y-69332778D01*
X140202989Y-69332779D01*
X140046467Y-69416443D01*
X139989853Y-69433616D01*
X139876627Y-69467963D01*
X139810442Y-69474482D01*
X139744260Y-69481000D01*
X139655740Y-69481000D01*
X139589558Y-69474482D01*
X139523373Y-69467963D01*
X139410147Y-69433616D01*
X139353533Y-69416443D01*
X139197011Y-69332779D01*
X139197009Y-69332778D01*
X139161271Y-69303448D01*
X139059814Y-69220186D01*
X138976552Y-69118729D01*
X138947222Y-69082991D01*
X138937652Y-69065087D01*
X138863557Y-68926467D01*
X138846384Y-68869853D01*
X138812037Y-68756627D01*
X138794641Y-68580000D01*
X138812037Y-68403373D01*
X138863557Y-68233534D01*
X138863557Y-68233533D01*
X138947221Y-68077011D01*
X138947222Y-68077009D01*
X138976552Y-68041271D01*
X139059814Y-67939814D01*
X139161271Y-67856552D01*
X139197009Y-67827222D01*
X139214913Y-67817652D01*
X139353533Y-67743557D01*
X139410147Y-67726384D01*
X139523373Y-67692037D01*
X139589557Y-67685519D01*
X139655740Y-67679000D01*
X139744260Y-67679000D01*
X139810443Y-67685519D01*
X139810443Y-67685519D01*
G37*
G36*
X142350443Y-67685519D02*
X142416627Y-67692037D01*
X142529853Y-67726384D01*
X142586467Y-67743557D01*
X142725087Y-67817652D01*
X142742991Y-67827222D01*
X142778729Y-67856552D01*
X142880186Y-67939814D01*
X142963448Y-68041271D01*
X142992778Y-68077009D01*
X142992779Y-68077011D01*
X143076443Y-68233533D01*
X143076443Y-68233534D01*
X143127963Y-68403373D01*
X143145359Y-68580000D01*
X143127963Y-68756627D01*
X143093616Y-68869853D01*
X143076443Y-68926467D01*
X143002348Y-69065087D01*
X142992778Y-69082991D01*
X142963448Y-69118729D01*
X142880186Y-69220186D01*
X142778729Y-69303448D01*
X142742991Y-69332778D01*
X142742989Y-69332779D01*
X142586467Y-69416443D01*
X142529853Y-69433616D01*
X142416627Y-69467963D01*
X142350442Y-69474482D01*
X142284260Y-69481000D01*
X142195740Y-69481000D01*
X142129558Y-69474482D01*
X142063373Y-69467963D01*
X141950147Y-69433616D01*
X141893533Y-69416443D01*
X141737011Y-69332779D01*
X141737009Y-69332778D01*
X141701271Y-69303448D01*
X141599814Y-69220186D01*
X141516552Y-69118729D01*
X141487222Y-69082991D01*
X141477652Y-69065087D01*
X141403557Y-68926467D01*
X141386384Y-68869853D01*
X141352037Y-68756627D01*
X141334641Y-68580000D01*
X141352037Y-68403373D01*
X141403557Y-68233534D01*
X141403557Y-68233533D01*
X141487221Y-68077011D01*
X141487222Y-68077009D01*
X141516552Y-68041271D01*
X141599814Y-67939814D01*
X141701271Y-67856552D01*
X141737009Y-67827222D01*
X141754913Y-67817652D01*
X141893533Y-67743557D01*
X141950147Y-67726384D01*
X142063373Y-67692037D01*
X142129557Y-67685519D01*
X142195740Y-67679000D01*
X142284260Y-67679000D01*
X142350443Y-67685519D01*
X142350443Y-67685519D01*
G37*
G36*
X134730442Y-65145518D02*
X134796627Y-65152037D01*
X134909853Y-65186384D01*
X134966467Y-65203557D01*
X135105087Y-65277652D01*
X135122991Y-65287222D01*
X135158729Y-65316552D01*
X135260186Y-65399814D01*
X135343448Y-65501271D01*
X135372778Y-65537009D01*
X135372779Y-65537011D01*
X135456443Y-65693533D01*
X135456443Y-65693534D01*
X135507963Y-65863373D01*
X135525359Y-66040000D01*
X135507963Y-66216627D01*
X135473616Y-66329853D01*
X135456443Y-66386467D01*
X135382348Y-66525087D01*
X135372778Y-66542991D01*
X135343448Y-66578729D01*
X135260186Y-66680186D01*
X135158729Y-66763448D01*
X135122991Y-66792778D01*
X135122989Y-66792779D01*
X134966467Y-66876443D01*
X134909853Y-66893616D01*
X134796627Y-66927963D01*
X134730442Y-66934482D01*
X134664260Y-66941000D01*
X134575740Y-66941000D01*
X134509558Y-66934482D01*
X134443373Y-66927963D01*
X134330147Y-66893616D01*
X134273533Y-66876443D01*
X134117011Y-66792779D01*
X134117009Y-66792778D01*
X134081271Y-66763448D01*
X133979814Y-66680186D01*
X133896552Y-66578729D01*
X133867222Y-66542991D01*
X133857652Y-66525087D01*
X133783557Y-66386467D01*
X133766384Y-66329853D01*
X133732037Y-66216627D01*
X133714641Y-66040000D01*
X133732037Y-65863373D01*
X133783557Y-65693534D01*
X133783557Y-65693533D01*
X133867221Y-65537011D01*
X133867222Y-65537009D01*
X133896552Y-65501271D01*
X133979814Y-65399814D01*
X134081271Y-65316552D01*
X134117009Y-65287222D01*
X134134913Y-65277652D01*
X134273533Y-65203557D01*
X134330147Y-65186384D01*
X134443373Y-65152037D01*
X134509558Y-65145518D01*
X134575740Y-65139000D01*
X134664260Y-65139000D01*
X134730442Y-65145518D01*
X134730442Y-65145518D01*
G37*
G36*
X132190442Y-65145518D02*
X132256627Y-65152037D01*
X132369853Y-65186384D01*
X132426467Y-65203557D01*
X132565087Y-65277652D01*
X132582991Y-65287222D01*
X132618729Y-65316552D01*
X132720186Y-65399814D01*
X132803448Y-65501271D01*
X132832778Y-65537009D01*
X132832779Y-65537011D01*
X132916443Y-65693533D01*
X132916443Y-65693534D01*
X132967963Y-65863373D01*
X132985359Y-66040000D01*
X132967963Y-66216627D01*
X132933616Y-66329853D01*
X132916443Y-66386467D01*
X132842348Y-66525087D01*
X132832778Y-66542991D01*
X132803448Y-66578729D01*
X132720186Y-66680186D01*
X132618729Y-66763448D01*
X132582991Y-66792778D01*
X132582989Y-66792779D01*
X132426467Y-66876443D01*
X132369853Y-66893616D01*
X132256627Y-66927963D01*
X132190442Y-66934482D01*
X132124260Y-66941000D01*
X132035740Y-66941000D01*
X131969558Y-66934482D01*
X131903373Y-66927963D01*
X131790147Y-66893616D01*
X131733533Y-66876443D01*
X131577011Y-66792779D01*
X131577009Y-66792778D01*
X131541271Y-66763448D01*
X131439814Y-66680186D01*
X131356552Y-66578729D01*
X131327222Y-66542991D01*
X131317652Y-66525087D01*
X131243557Y-66386467D01*
X131226384Y-66329853D01*
X131192037Y-66216627D01*
X131174641Y-66040000D01*
X131192037Y-65863373D01*
X131243557Y-65693534D01*
X131243557Y-65693533D01*
X131327221Y-65537011D01*
X131327222Y-65537009D01*
X131356552Y-65501271D01*
X131439814Y-65399814D01*
X131541271Y-65316552D01*
X131577009Y-65287222D01*
X131594913Y-65277652D01*
X131733533Y-65203557D01*
X131790147Y-65186384D01*
X131903373Y-65152037D01*
X131969558Y-65145518D01*
X132035740Y-65139000D01*
X132124260Y-65139000D01*
X132190442Y-65145518D01*
X132190442Y-65145518D01*
G37*
G36*
X129650442Y-65145518D02*
X129716627Y-65152037D01*
X129829853Y-65186384D01*
X129886467Y-65203557D01*
X130025087Y-65277652D01*
X130042991Y-65287222D01*
X130078729Y-65316552D01*
X130180186Y-65399814D01*
X130263448Y-65501271D01*
X130292778Y-65537009D01*
X130292779Y-65537011D01*
X130376443Y-65693533D01*
X130376443Y-65693534D01*
X130427963Y-65863373D01*
X130445359Y-66040000D01*
X130427963Y-66216627D01*
X130393616Y-66329853D01*
X130376443Y-66386467D01*
X130302348Y-66525087D01*
X130292778Y-66542991D01*
X130263448Y-66578729D01*
X130180186Y-66680186D01*
X130078729Y-66763448D01*
X130042991Y-66792778D01*
X130042989Y-66792779D01*
X129886467Y-66876443D01*
X129829853Y-66893616D01*
X129716627Y-66927963D01*
X129650442Y-66934482D01*
X129584260Y-66941000D01*
X129495740Y-66941000D01*
X129429558Y-66934482D01*
X129363373Y-66927963D01*
X129250147Y-66893616D01*
X129193533Y-66876443D01*
X129037011Y-66792779D01*
X129037009Y-66792778D01*
X129001271Y-66763448D01*
X128899814Y-66680186D01*
X128816552Y-66578729D01*
X128787222Y-66542991D01*
X128777652Y-66525087D01*
X128703557Y-66386467D01*
X128686384Y-66329853D01*
X128652037Y-66216627D01*
X128634641Y-66040000D01*
X128652037Y-65863373D01*
X128703557Y-65693534D01*
X128703557Y-65693533D01*
X128787221Y-65537011D01*
X128787222Y-65537009D01*
X128816552Y-65501271D01*
X128899814Y-65399814D01*
X129001271Y-65316552D01*
X129037009Y-65287222D01*
X129054913Y-65277652D01*
X129193533Y-65203557D01*
X129250147Y-65186384D01*
X129363373Y-65152037D01*
X129429558Y-65145518D01*
X129495740Y-65139000D01*
X129584260Y-65139000D01*
X129650442Y-65145518D01*
X129650442Y-65145518D01*
G37*
G36*
X127110442Y-65145518D02*
X127176627Y-65152037D01*
X127289853Y-65186384D01*
X127346467Y-65203557D01*
X127485087Y-65277652D01*
X127502991Y-65287222D01*
X127538729Y-65316552D01*
X127640186Y-65399814D01*
X127723448Y-65501271D01*
X127752778Y-65537009D01*
X127752779Y-65537011D01*
X127836443Y-65693533D01*
X127836443Y-65693534D01*
X127887963Y-65863373D01*
X127905359Y-66040000D01*
X127887963Y-66216627D01*
X127853616Y-66329853D01*
X127836443Y-66386467D01*
X127762348Y-66525087D01*
X127752778Y-66542991D01*
X127723448Y-66578729D01*
X127640186Y-66680186D01*
X127538729Y-66763448D01*
X127502991Y-66792778D01*
X127502989Y-66792779D01*
X127346467Y-66876443D01*
X127289853Y-66893616D01*
X127176627Y-66927963D01*
X127110442Y-66934482D01*
X127044260Y-66941000D01*
X126955740Y-66941000D01*
X126889558Y-66934482D01*
X126823373Y-66927963D01*
X126710147Y-66893616D01*
X126653533Y-66876443D01*
X126497011Y-66792779D01*
X126497009Y-66792778D01*
X126461271Y-66763448D01*
X126359814Y-66680186D01*
X126276552Y-66578729D01*
X126247222Y-66542991D01*
X126237652Y-66525087D01*
X126163557Y-66386467D01*
X126146384Y-66329853D01*
X126112037Y-66216627D01*
X126094641Y-66040000D01*
X126112037Y-65863373D01*
X126163557Y-65693534D01*
X126163557Y-65693533D01*
X126247221Y-65537011D01*
X126247222Y-65537009D01*
X126276552Y-65501271D01*
X126359814Y-65399814D01*
X126461271Y-65316552D01*
X126497009Y-65287222D01*
X126514913Y-65277652D01*
X126653533Y-65203557D01*
X126710147Y-65186384D01*
X126823373Y-65152037D01*
X126889558Y-65145518D01*
X126955740Y-65139000D01*
X127044260Y-65139000D01*
X127110442Y-65145518D01*
X127110442Y-65145518D01*
G37*
G36*
X142350442Y-65145518D02*
X142416627Y-65152037D01*
X142529853Y-65186384D01*
X142586467Y-65203557D01*
X142725087Y-65277652D01*
X142742991Y-65287222D01*
X142778729Y-65316552D01*
X142880186Y-65399814D01*
X142963448Y-65501271D01*
X142992778Y-65537009D01*
X142992779Y-65537011D01*
X143076443Y-65693533D01*
X143076443Y-65693534D01*
X143127963Y-65863373D01*
X143145359Y-66040000D01*
X143127963Y-66216627D01*
X143093616Y-66329853D01*
X143076443Y-66386467D01*
X143002348Y-66525087D01*
X142992778Y-66542991D01*
X142963448Y-66578729D01*
X142880186Y-66680186D01*
X142778729Y-66763448D01*
X142742991Y-66792778D01*
X142742989Y-66792779D01*
X142586467Y-66876443D01*
X142529853Y-66893616D01*
X142416627Y-66927963D01*
X142350442Y-66934482D01*
X142284260Y-66941000D01*
X142195740Y-66941000D01*
X142129558Y-66934482D01*
X142063373Y-66927963D01*
X141950147Y-66893616D01*
X141893533Y-66876443D01*
X141737011Y-66792779D01*
X141737009Y-66792778D01*
X141701271Y-66763448D01*
X141599814Y-66680186D01*
X141516552Y-66578729D01*
X141487222Y-66542991D01*
X141477652Y-66525087D01*
X141403557Y-66386467D01*
X141386384Y-66329853D01*
X141352037Y-66216627D01*
X141334641Y-66040000D01*
X141352037Y-65863373D01*
X141403557Y-65693534D01*
X141403557Y-65693533D01*
X141487221Y-65537011D01*
X141487222Y-65537009D01*
X141516552Y-65501271D01*
X141599814Y-65399814D01*
X141701271Y-65316552D01*
X141737009Y-65287222D01*
X141754913Y-65277652D01*
X141893533Y-65203557D01*
X141950147Y-65186384D01*
X142063373Y-65152037D01*
X142129558Y-65145518D01*
X142195740Y-65139000D01*
X142284260Y-65139000D01*
X142350442Y-65145518D01*
X142350442Y-65145518D01*
G37*
G36*
X122030442Y-65145518D02*
X122096627Y-65152037D01*
X122209853Y-65186384D01*
X122266467Y-65203557D01*
X122405087Y-65277652D01*
X122422991Y-65287222D01*
X122458729Y-65316552D01*
X122560186Y-65399814D01*
X122643448Y-65501271D01*
X122672778Y-65537009D01*
X122672779Y-65537011D01*
X122756443Y-65693533D01*
X122756443Y-65693534D01*
X122807963Y-65863373D01*
X122825359Y-66040000D01*
X122807963Y-66216627D01*
X122773616Y-66329853D01*
X122756443Y-66386467D01*
X122682348Y-66525087D01*
X122672778Y-66542991D01*
X122643448Y-66578729D01*
X122560186Y-66680186D01*
X122458729Y-66763448D01*
X122422991Y-66792778D01*
X122422989Y-66792779D01*
X122266467Y-66876443D01*
X122209853Y-66893616D01*
X122096627Y-66927963D01*
X122030442Y-66934482D01*
X121964260Y-66941000D01*
X121875740Y-66941000D01*
X121809558Y-66934482D01*
X121743373Y-66927963D01*
X121630147Y-66893616D01*
X121573533Y-66876443D01*
X121417011Y-66792779D01*
X121417009Y-66792778D01*
X121381271Y-66763448D01*
X121279814Y-66680186D01*
X121196552Y-66578729D01*
X121167222Y-66542991D01*
X121157652Y-66525087D01*
X121083557Y-66386467D01*
X121066384Y-66329853D01*
X121032037Y-66216627D01*
X121014641Y-66040000D01*
X121032037Y-65863373D01*
X121083557Y-65693534D01*
X121083557Y-65693533D01*
X121167221Y-65537011D01*
X121167222Y-65537009D01*
X121196552Y-65501271D01*
X121279814Y-65399814D01*
X121381271Y-65316552D01*
X121417009Y-65287222D01*
X121434913Y-65277652D01*
X121573533Y-65203557D01*
X121630147Y-65186384D01*
X121743373Y-65152037D01*
X121809558Y-65145518D01*
X121875740Y-65139000D01*
X121964260Y-65139000D01*
X122030442Y-65145518D01*
X122030442Y-65145518D01*
G37*
G36*
X124570442Y-65145518D02*
X124636627Y-65152037D01*
X124749853Y-65186384D01*
X124806467Y-65203557D01*
X124945087Y-65277652D01*
X124962991Y-65287222D01*
X124998729Y-65316552D01*
X125100186Y-65399814D01*
X125183448Y-65501271D01*
X125212778Y-65537009D01*
X125212779Y-65537011D01*
X125296443Y-65693533D01*
X125296443Y-65693534D01*
X125347963Y-65863373D01*
X125365359Y-66040000D01*
X125347963Y-66216627D01*
X125313616Y-66329853D01*
X125296443Y-66386467D01*
X125222348Y-66525087D01*
X125212778Y-66542991D01*
X125183448Y-66578729D01*
X125100186Y-66680186D01*
X124998729Y-66763448D01*
X124962991Y-66792778D01*
X124962989Y-66792779D01*
X124806467Y-66876443D01*
X124749853Y-66893616D01*
X124636627Y-66927963D01*
X124570442Y-66934482D01*
X124504260Y-66941000D01*
X124415740Y-66941000D01*
X124349558Y-66934482D01*
X124283373Y-66927963D01*
X124170147Y-66893616D01*
X124113533Y-66876443D01*
X123957011Y-66792779D01*
X123957009Y-66792778D01*
X123921271Y-66763448D01*
X123819814Y-66680186D01*
X123736552Y-66578729D01*
X123707222Y-66542991D01*
X123697652Y-66525087D01*
X123623557Y-66386467D01*
X123606384Y-66329853D01*
X123572037Y-66216627D01*
X123554641Y-66040000D01*
X123572037Y-65863373D01*
X123623557Y-65693534D01*
X123623557Y-65693533D01*
X123707221Y-65537011D01*
X123707222Y-65537009D01*
X123736552Y-65501271D01*
X123819814Y-65399814D01*
X123921271Y-65316552D01*
X123957009Y-65287222D01*
X123974913Y-65277652D01*
X124113533Y-65203557D01*
X124170147Y-65186384D01*
X124283373Y-65152037D01*
X124349558Y-65145518D01*
X124415740Y-65139000D01*
X124504260Y-65139000D01*
X124570442Y-65145518D01*
X124570442Y-65145518D01*
G37*
G36*
X139810442Y-65145518D02*
X139876627Y-65152037D01*
X139989853Y-65186384D01*
X140046467Y-65203557D01*
X140185087Y-65277652D01*
X140202991Y-65287222D01*
X140238729Y-65316552D01*
X140340186Y-65399814D01*
X140423448Y-65501271D01*
X140452778Y-65537009D01*
X140452779Y-65537011D01*
X140536443Y-65693533D01*
X140536443Y-65693534D01*
X140587963Y-65863373D01*
X140605359Y-66040000D01*
X140587963Y-66216627D01*
X140553616Y-66329853D01*
X140536443Y-66386467D01*
X140462348Y-66525087D01*
X140452778Y-66542991D01*
X140423448Y-66578729D01*
X140340186Y-66680186D01*
X140238729Y-66763448D01*
X140202991Y-66792778D01*
X140202989Y-66792779D01*
X140046467Y-66876443D01*
X139989853Y-66893616D01*
X139876627Y-66927963D01*
X139810442Y-66934482D01*
X139744260Y-66941000D01*
X139655740Y-66941000D01*
X139589558Y-66934482D01*
X139523373Y-66927963D01*
X139410147Y-66893616D01*
X139353533Y-66876443D01*
X139197011Y-66792779D01*
X139197009Y-66792778D01*
X139161271Y-66763448D01*
X139059814Y-66680186D01*
X138976552Y-66578729D01*
X138947222Y-66542991D01*
X138937652Y-66525087D01*
X138863557Y-66386467D01*
X138846384Y-66329853D01*
X138812037Y-66216627D01*
X138794641Y-66040000D01*
X138812037Y-65863373D01*
X138863557Y-65693534D01*
X138863557Y-65693533D01*
X138947221Y-65537011D01*
X138947222Y-65537009D01*
X138976552Y-65501271D01*
X139059814Y-65399814D01*
X139161271Y-65316552D01*
X139197009Y-65287222D01*
X139214913Y-65277652D01*
X139353533Y-65203557D01*
X139410147Y-65186384D01*
X139523373Y-65152037D01*
X139589558Y-65145518D01*
X139655740Y-65139000D01*
X139744260Y-65139000D01*
X139810442Y-65145518D01*
X139810442Y-65145518D01*
G37*
G36*
X137270442Y-65145518D02*
X137336627Y-65152037D01*
X137449853Y-65186384D01*
X137506467Y-65203557D01*
X137645087Y-65277652D01*
X137662991Y-65287222D01*
X137698729Y-65316552D01*
X137800186Y-65399814D01*
X137883448Y-65501271D01*
X137912778Y-65537009D01*
X137912779Y-65537011D01*
X137996443Y-65693533D01*
X137996443Y-65693534D01*
X138047963Y-65863373D01*
X138065359Y-66040000D01*
X138047963Y-66216627D01*
X138013616Y-66329853D01*
X137996443Y-66386467D01*
X137922348Y-66525087D01*
X137912778Y-66542991D01*
X137883448Y-66578729D01*
X137800186Y-66680186D01*
X137698729Y-66763448D01*
X137662991Y-66792778D01*
X137662989Y-66792779D01*
X137506467Y-66876443D01*
X137449853Y-66893616D01*
X137336627Y-66927963D01*
X137270442Y-66934482D01*
X137204260Y-66941000D01*
X137115740Y-66941000D01*
X137049558Y-66934482D01*
X136983373Y-66927963D01*
X136870147Y-66893616D01*
X136813533Y-66876443D01*
X136657011Y-66792779D01*
X136657009Y-66792778D01*
X136621271Y-66763448D01*
X136519814Y-66680186D01*
X136436552Y-66578729D01*
X136407222Y-66542991D01*
X136397652Y-66525087D01*
X136323557Y-66386467D01*
X136306384Y-66329853D01*
X136272037Y-66216627D01*
X136254641Y-66040000D01*
X136272037Y-65863373D01*
X136323557Y-65693534D01*
X136323557Y-65693533D01*
X136407221Y-65537011D01*
X136407222Y-65537009D01*
X136436552Y-65501271D01*
X136519814Y-65399814D01*
X136621271Y-65316552D01*
X136657009Y-65287222D01*
X136674913Y-65277652D01*
X136813533Y-65203557D01*
X136870147Y-65186384D01*
X136983373Y-65152037D01*
X137049558Y-65145518D01*
X137115740Y-65139000D01*
X137204260Y-65139000D01*
X137270442Y-65145518D01*
X137270442Y-65145518D01*
G37*
G36*
X124570442Y-62605518D02*
X124636627Y-62612037D01*
X124749853Y-62646384D01*
X124806467Y-62663557D01*
X124945087Y-62737652D01*
X124962991Y-62747222D01*
X124998729Y-62776552D01*
X125100186Y-62859814D01*
X125183448Y-62961271D01*
X125212778Y-62997009D01*
X125212779Y-62997011D01*
X125296443Y-63153533D01*
X125296443Y-63153534D01*
X125347963Y-63323373D01*
X125365359Y-63500000D01*
X125347963Y-63676627D01*
X125313616Y-63789853D01*
X125296443Y-63846467D01*
X125222348Y-63985087D01*
X125212778Y-64002991D01*
X125183448Y-64038729D01*
X125100186Y-64140186D01*
X124998729Y-64223448D01*
X124962991Y-64252778D01*
X124962989Y-64252779D01*
X124806467Y-64336443D01*
X124749853Y-64353616D01*
X124636627Y-64387963D01*
X124570442Y-64394482D01*
X124504260Y-64401000D01*
X124415740Y-64401000D01*
X124349558Y-64394482D01*
X124283373Y-64387963D01*
X124170147Y-64353616D01*
X124113533Y-64336443D01*
X123957011Y-64252779D01*
X123957009Y-64252778D01*
X123921271Y-64223448D01*
X123819814Y-64140186D01*
X123736552Y-64038729D01*
X123707222Y-64002991D01*
X123697652Y-63985087D01*
X123623557Y-63846467D01*
X123606384Y-63789853D01*
X123572037Y-63676627D01*
X123554641Y-63500000D01*
X123572037Y-63323373D01*
X123623557Y-63153534D01*
X123623557Y-63153533D01*
X123707221Y-62997011D01*
X123707222Y-62997009D01*
X123736552Y-62961271D01*
X123819814Y-62859814D01*
X123921271Y-62776552D01*
X123957009Y-62747222D01*
X123974913Y-62737652D01*
X124113533Y-62663557D01*
X124170147Y-62646384D01*
X124283373Y-62612037D01*
X124349558Y-62605518D01*
X124415740Y-62599000D01*
X124504260Y-62599000D01*
X124570442Y-62605518D01*
X124570442Y-62605518D01*
G37*
G36*
X132190442Y-62605518D02*
X132256627Y-62612037D01*
X132369853Y-62646384D01*
X132426467Y-62663557D01*
X132565087Y-62737652D01*
X132582991Y-62747222D01*
X132618729Y-62776552D01*
X132720186Y-62859814D01*
X132803448Y-62961271D01*
X132832778Y-62997009D01*
X132832779Y-62997011D01*
X132916443Y-63153533D01*
X132916443Y-63153534D01*
X132967963Y-63323373D01*
X132985359Y-63500000D01*
X132967963Y-63676627D01*
X132933616Y-63789853D01*
X132916443Y-63846467D01*
X132842348Y-63985087D01*
X132832778Y-64002991D01*
X132803448Y-64038729D01*
X132720186Y-64140186D01*
X132618729Y-64223448D01*
X132582991Y-64252778D01*
X132582989Y-64252779D01*
X132426467Y-64336443D01*
X132369853Y-64353616D01*
X132256627Y-64387963D01*
X132190442Y-64394482D01*
X132124260Y-64401000D01*
X132035740Y-64401000D01*
X131969558Y-64394482D01*
X131903373Y-64387963D01*
X131790147Y-64353616D01*
X131733533Y-64336443D01*
X131577011Y-64252779D01*
X131577009Y-64252778D01*
X131541271Y-64223448D01*
X131439814Y-64140186D01*
X131356552Y-64038729D01*
X131327222Y-64002991D01*
X131317652Y-63985087D01*
X131243557Y-63846467D01*
X131226384Y-63789853D01*
X131192037Y-63676627D01*
X131174641Y-63500000D01*
X131192037Y-63323373D01*
X131243557Y-63153534D01*
X131243557Y-63153533D01*
X131327221Y-62997011D01*
X131327222Y-62997009D01*
X131356552Y-62961271D01*
X131439814Y-62859814D01*
X131541271Y-62776552D01*
X131577009Y-62747222D01*
X131594913Y-62737652D01*
X131733533Y-62663557D01*
X131790147Y-62646384D01*
X131903373Y-62612037D01*
X131969558Y-62605518D01*
X132035740Y-62599000D01*
X132124260Y-62599000D01*
X132190442Y-62605518D01*
X132190442Y-62605518D01*
G37*
G36*
X129650442Y-62605518D02*
X129716627Y-62612037D01*
X129829853Y-62646384D01*
X129886467Y-62663557D01*
X130025087Y-62737652D01*
X130042991Y-62747222D01*
X130078729Y-62776552D01*
X130180186Y-62859814D01*
X130263448Y-62961271D01*
X130292778Y-62997009D01*
X130292779Y-62997011D01*
X130376443Y-63153533D01*
X130376443Y-63153534D01*
X130427963Y-63323373D01*
X130445359Y-63500000D01*
X130427963Y-63676627D01*
X130393616Y-63789853D01*
X130376443Y-63846467D01*
X130302348Y-63985087D01*
X130292778Y-64002991D01*
X130263448Y-64038729D01*
X130180186Y-64140186D01*
X130078729Y-64223448D01*
X130042991Y-64252778D01*
X130042989Y-64252779D01*
X129886467Y-64336443D01*
X129829853Y-64353616D01*
X129716627Y-64387963D01*
X129650442Y-64394482D01*
X129584260Y-64401000D01*
X129495740Y-64401000D01*
X129429558Y-64394482D01*
X129363373Y-64387963D01*
X129250147Y-64353616D01*
X129193533Y-64336443D01*
X129037011Y-64252779D01*
X129037009Y-64252778D01*
X129001271Y-64223448D01*
X128899814Y-64140186D01*
X128816552Y-64038729D01*
X128787222Y-64002991D01*
X128777652Y-63985087D01*
X128703557Y-63846467D01*
X128686384Y-63789853D01*
X128652037Y-63676627D01*
X128634641Y-63500000D01*
X128652037Y-63323373D01*
X128703557Y-63153534D01*
X128703557Y-63153533D01*
X128787221Y-62997011D01*
X128787222Y-62997009D01*
X128816552Y-62961271D01*
X128899814Y-62859814D01*
X129001271Y-62776552D01*
X129037009Y-62747222D01*
X129054913Y-62737652D01*
X129193533Y-62663557D01*
X129250147Y-62646384D01*
X129363373Y-62612037D01*
X129429558Y-62605518D01*
X129495740Y-62599000D01*
X129584260Y-62599000D01*
X129650442Y-62605518D01*
X129650442Y-62605518D01*
G37*
G36*
X127110442Y-62605518D02*
X127176627Y-62612037D01*
X127289853Y-62646384D01*
X127346467Y-62663557D01*
X127485087Y-62737652D01*
X127502991Y-62747222D01*
X127538729Y-62776552D01*
X127640186Y-62859814D01*
X127723448Y-62961271D01*
X127752778Y-62997009D01*
X127752779Y-62997011D01*
X127836443Y-63153533D01*
X127836443Y-63153534D01*
X127887963Y-63323373D01*
X127905359Y-63500000D01*
X127887963Y-63676627D01*
X127853616Y-63789853D01*
X127836443Y-63846467D01*
X127762348Y-63985087D01*
X127752778Y-64002991D01*
X127723448Y-64038729D01*
X127640186Y-64140186D01*
X127538729Y-64223448D01*
X127502991Y-64252778D01*
X127502989Y-64252779D01*
X127346467Y-64336443D01*
X127289853Y-64353616D01*
X127176627Y-64387963D01*
X127110442Y-64394482D01*
X127044260Y-64401000D01*
X126955740Y-64401000D01*
X126889558Y-64394482D01*
X126823373Y-64387963D01*
X126710147Y-64353616D01*
X126653533Y-64336443D01*
X126497011Y-64252779D01*
X126497009Y-64252778D01*
X126461271Y-64223448D01*
X126359814Y-64140186D01*
X126276552Y-64038729D01*
X126247222Y-64002991D01*
X126237652Y-63985087D01*
X126163557Y-63846467D01*
X126146384Y-63789853D01*
X126112037Y-63676627D01*
X126094641Y-63500000D01*
X126112037Y-63323373D01*
X126163557Y-63153534D01*
X126163557Y-63153533D01*
X126247221Y-62997011D01*
X126247222Y-62997009D01*
X126276552Y-62961271D01*
X126359814Y-62859814D01*
X126461271Y-62776552D01*
X126497009Y-62747222D01*
X126514913Y-62737652D01*
X126653533Y-62663557D01*
X126710147Y-62646384D01*
X126823373Y-62612037D01*
X126889558Y-62605518D01*
X126955740Y-62599000D01*
X127044260Y-62599000D01*
X127110442Y-62605518D01*
X127110442Y-62605518D01*
G37*
G36*
X134730442Y-62605518D02*
X134796627Y-62612037D01*
X134909853Y-62646384D01*
X134966467Y-62663557D01*
X135105087Y-62737652D01*
X135122991Y-62747222D01*
X135158729Y-62776552D01*
X135260186Y-62859814D01*
X135343448Y-62961271D01*
X135372778Y-62997009D01*
X135372779Y-62997011D01*
X135456443Y-63153533D01*
X135456443Y-63153534D01*
X135507963Y-63323373D01*
X135525359Y-63500000D01*
X135507963Y-63676627D01*
X135473616Y-63789853D01*
X135456443Y-63846467D01*
X135382348Y-63985087D01*
X135372778Y-64002991D01*
X135343448Y-64038729D01*
X135260186Y-64140186D01*
X135158729Y-64223448D01*
X135122991Y-64252778D01*
X135122989Y-64252779D01*
X134966467Y-64336443D01*
X134909853Y-64353616D01*
X134796627Y-64387963D01*
X134730442Y-64394482D01*
X134664260Y-64401000D01*
X134575740Y-64401000D01*
X134509558Y-64394482D01*
X134443373Y-64387963D01*
X134330147Y-64353616D01*
X134273533Y-64336443D01*
X134117011Y-64252779D01*
X134117009Y-64252778D01*
X134081271Y-64223448D01*
X133979814Y-64140186D01*
X133896552Y-64038729D01*
X133867222Y-64002991D01*
X133857652Y-63985087D01*
X133783557Y-63846467D01*
X133766384Y-63789853D01*
X133732037Y-63676627D01*
X133714641Y-63500000D01*
X133732037Y-63323373D01*
X133783557Y-63153534D01*
X133783557Y-63153533D01*
X133867221Y-62997011D01*
X133867222Y-62997009D01*
X133896552Y-62961271D01*
X133979814Y-62859814D01*
X134081271Y-62776552D01*
X134117009Y-62747222D01*
X134134913Y-62737652D01*
X134273533Y-62663557D01*
X134330147Y-62646384D01*
X134443373Y-62612037D01*
X134509558Y-62605518D01*
X134575740Y-62599000D01*
X134664260Y-62599000D01*
X134730442Y-62605518D01*
X134730442Y-62605518D01*
G37*
G36*
X122030442Y-62605518D02*
X122096627Y-62612037D01*
X122209853Y-62646384D01*
X122266467Y-62663557D01*
X122405087Y-62737652D01*
X122422991Y-62747222D01*
X122458729Y-62776552D01*
X122560186Y-62859814D01*
X122643448Y-62961271D01*
X122672778Y-62997009D01*
X122672779Y-62997011D01*
X122756443Y-63153533D01*
X122756443Y-63153534D01*
X122807963Y-63323373D01*
X122825359Y-63500000D01*
X122807963Y-63676627D01*
X122773616Y-63789853D01*
X122756443Y-63846467D01*
X122682348Y-63985087D01*
X122672778Y-64002991D01*
X122643448Y-64038729D01*
X122560186Y-64140186D01*
X122458729Y-64223448D01*
X122422991Y-64252778D01*
X122422989Y-64252779D01*
X122266467Y-64336443D01*
X122209853Y-64353616D01*
X122096627Y-64387963D01*
X122030442Y-64394482D01*
X121964260Y-64401000D01*
X121875740Y-64401000D01*
X121809558Y-64394482D01*
X121743373Y-64387963D01*
X121630147Y-64353616D01*
X121573533Y-64336443D01*
X121417011Y-64252779D01*
X121417009Y-64252778D01*
X121381271Y-64223448D01*
X121279814Y-64140186D01*
X121196552Y-64038729D01*
X121167222Y-64002991D01*
X121157652Y-63985087D01*
X121083557Y-63846467D01*
X121066384Y-63789853D01*
X121032037Y-63676627D01*
X121014641Y-63500000D01*
X121032037Y-63323373D01*
X121083557Y-63153534D01*
X121083557Y-63153533D01*
X121167221Y-62997011D01*
X121167222Y-62997009D01*
X121196552Y-62961271D01*
X121279814Y-62859814D01*
X121381271Y-62776552D01*
X121417009Y-62747222D01*
X121434913Y-62737652D01*
X121573533Y-62663557D01*
X121630147Y-62646384D01*
X121743373Y-62612037D01*
X121809558Y-62605518D01*
X121875740Y-62599000D01*
X121964260Y-62599000D01*
X122030442Y-62605518D01*
X122030442Y-62605518D01*
G37*
G36*
X139810442Y-62605518D02*
X139876627Y-62612037D01*
X139989853Y-62646384D01*
X140046467Y-62663557D01*
X140185087Y-62737652D01*
X140202991Y-62747222D01*
X140238729Y-62776552D01*
X140340186Y-62859814D01*
X140423448Y-62961271D01*
X140452778Y-62997009D01*
X140452779Y-62997011D01*
X140536443Y-63153533D01*
X140536443Y-63153534D01*
X140587963Y-63323373D01*
X140605359Y-63500000D01*
X140587963Y-63676627D01*
X140553616Y-63789853D01*
X140536443Y-63846467D01*
X140462348Y-63985087D01*
X140452778Y-64002991D01*
X140423448Y-64038729D01*
X140340186Y-64140186D01*
X140238729Y-64223448D01*
X140202991Y-64252778D01*
X140202989Y-64252779D01*
X140046467Y-64336443D01*
X139989853Y-64353616D01*
X139876627Y-64387963D01*
X139810442Y-64394482D01*
X139744260Y-64401000D01*
X139655740Y-64401000D01*
X139589558Y-64394482D01*
X139523373Y-64387963D01*
X139410147Y-64353616D01*
X139353533Y-64336443D01*
X139197011Y-64252779D01*
X139197009Y-64252778D01*
X139161271Y-64223448D01*
X139059814Y-64140186D01*
X138976552Y-64038729D01*
X138947222Y-64002991D01*
X138937652Y-63985087D01*
X138863557Y-63846467D01*
X138846384Y-63789853D01*
X138812037Y-63676627D01*
X138794641Y-63500000D01*
X138812037Y-63323373D01*
X138863557Y-63153534D01*
X138863557Y-63153533D01*
X138947221Y-62997011D01*
X138947222Y-62997009D01*
X138976552Y-62961271D01*
X139059814Y-62859814D01*
X139161271Y-62776552D01*
X139197009Y-62747222D01*
X139214913Y-62737652D01*
X139353533Y-62663557D01*
X139410147Y-62646384D01*
X139523373Y-62612037D01*
X139589558Y-62605518D01*
X139655740Y-62599000D01*
X139744260Y-62599000D01*
X139810442Y-62605518D01*
X139810442Y-62605518D01*
G37*
G36*
X142350442Y-62605518D02*
X142416627Y-62612037D01*
X142529853Y-62646384D01*
X142586467Y-62663557D01*
X142725087Y-62737652D01*
X142742991Y-62747222D01*
X142778729Y-62776552D01*
X142880186Y-62859814D01*
X142963448Y-62961271D01*
X142992778Y-62997009D01*
X142992779Y-62997011D01*
X143076443Y-63153533D01*
X143076443Y-63153534D01*
X143127963Y-63323373D01*
X143145359Y-63500000D01*
X143127963Y-63676627D01*
X143093616Y-63789853D01*
X143076443Y-63846467D01*
X143002348Y-63985087D01*
X142992778Y-64002991D01*
X142963448Y-64038729D01*
X142880186Y-64140186D01*
X142778729Y-64223448D01*
X142742991Y-64252778D01*
X142742989Y-64252779D01*
X142586467Y-64336443D01*
X142529853Y-64353616D01*
X142416627Y-64387963D01*
X142350442Y-64394482D01*
X142284260Y-64401000D01*
X142195740Y-64401000D01*
X142129558Y-64394482D01*
X142063373Y-64387963D01*
X141950147Y-64353616D01*
X141893533Y-64336443D01*
X141737011Y-64252779D01*
X141737009Y-64252778D01*
X141701271Y-64223448D01*
X141599814Y-64140186D01*
X141516552Y-64038729D01*
X141487222Y-64002991D01*
X141477652Y-63985087D01*
X141403557Y-63846467D01*
X141386384Y-63789853D01*
X141352037Y-63676627D01*
X141334641Y-63500000D01*
X141352037Y-63323373D01*
X141403557Y-63153534D01*
X141403557Y-63153533D01*
X141487221Y-62997011D01*
X141487222Y-62997009D01*
X141516552Y-62961271D01*
X141599814Y-62859814D01*
X141701271Y-62776552D01*
X141737009Y-62747222D01*
X141754913Y-62737652D01*
X141893533Y-62663557D01*
X141950147Y-62646384D01*
X142063373Y-62612037D01*
X142129558Y-62605518D01*
X142195740Y-62599000D01*
X142284260Y-62599000D01*
X142350442Y-62605518D01*
X142350442Y-62605518D01*
G37*
G36*
X137270442Y-62605518D02*
X137336627Y-62612037D01*
X137449853Y-62646384D01*
X137506467Y-62663557D01*
X137645087Y-62737652D01*
X137662991Y-62747222D01*
X137698729Y-62776552D01*
X137800186Y-62859814D01*
X137883448Y-62961271D01*
X137912778Y-62997009D01*
X137912779Y-62997011D01*
X137996443Y-63153533D01*
X137996443Y-63153534D01*
X138047963Y-63323373D01*
X138065359Y-63500000D01*
X138047963Y-63676627D01*
X138013616Y-63789853D01*
X137996443Y-63846467D01*
X137922348Y-63985087D01*
X137912778Y-64002991D01*
X137883448Y-64038729D01*
X137800186Y-64140186D01*
X137698729Y-64223448D01*
X137662991Y-64252778D01*
X137662989Y-64252779D01*
X137506467Y-64336443D01*
X137449853Y-64353616D01*
X137336627Y-64387963D01*
X137270442Y-64394482D01*
X137204260Y-64401000D01*
X137115740Y-64401000D01*
X137049558Y-64394482D01*
X136983373Y-64387963D01*
X136870147Y-64353616D01*
X136813533Y-64336443D01*
X136657011Y-64252779D01*
X136657009Y-64252778D01*
X136621271Y-64223448D01*
X136519814Y-64140186D01*
X136436552Y-64038729D01*
X136407222Y-64002991D01*
X136397652Y-63985087D01*
X136323557Y-63846467D01*
X136306384Y-63789853D01*
X136272037Y-63676627D01*
X136254641Y-63500000D01*
X136272037Y-63323373D01*
X136323557Y-63153534D01*
X136323557Y-63153533D01*
X136407221Y-62997011D01*
X136407222Y-62997009D01*
X136436552Y-62961271D01*
X136519814Y-62859814D01*
X136621271Y-62776552D01*
X136657009Y-62747222D01*
X136674913Y-62737652D01*
X136813533Y-62663557D01*
X136870147Y-62646384D01*
X136983373Y-62612037D01*
X137049558Y-62605518D01*
X137115740Y-62599000D01*
X137204260Y-62599000D01*
X137270442Y-62605518D01*
X137270442Y-62605518D01*
G37*
G36*
X134730442Y-60065518D02*
X134796627Y-60072037D01*
X134909853Y-60106384D01*
X134966467Y-60123557D01*
X135105087Y-60197652D01*
X135122991Y-60207222D01*
X135158729Y-60236552D01*
X135260186Y-60319814D01*
X135343448Y-60421271D01*
X135372778Y-60457009D01*
X135372779Y-60457011D01*
X135456443Y-60613533D01*
X135456443Y-60613534D01*
X135507963Y-60783373D01*
X135525359Y-60960000D01*
X135507963Y-61136627D01*
X135473616Y-61249853D01*
X135456443Y-61306467D01*
X135382348Y-61445087D01*
X135372778Y-61462991D01*
X135343448Y-61498729D01*
X135260186Y-61600186D01*
X135158729Y-61683448D01*
X135122991Y-61712778D01*
X135122989Y-61712779D01*
X134966467Y-61796443D01*
X134909853Y-61813616D01*
X134796627Y-61847963D01*
X134730443Y-61854481D01*
X134664260Y-61861000D01*
X134575740Y-61861000D01*
X134509557Y-61854481D01*
X134443373Y-61847963D01*
X134330147Y-61813616D01*
X134273533Y-61796443D01*
X134117011Y-61712779D01*
X134117009Y-61712778D01*
X134081271Y-61683448D01*
X133979814Y-61600186D01*
X133896552Y-61498729D01*
X133867222Y-61462991D01*
X133857652Y-61445087D01*
X133783557Y-61306467D01*
X133766384Y-61249853D01*
X133732037Y-61136627D01*
X133714641Y-60960000D01*
X133732037Y-60783373D01*
X133783557Y-60613534D01*
X133783557Y-60613533D01*
X133867221Y-60457011D01*
X133867222Y-60457009D01*
X133896552Y-60421271D01*
X133979814Y-60319814D01*
X134081271Y-60236552D01*
X134117009Y-60207222D01*
X134134913Y-60197652D01*
X134273533Y-60123557D01*
X134330147Y-60106384D01*
X134443373Y-60072037D01*
X134509558Y-60065518D01*
X134575740Y-60059000D01*
X134664260Y-60059000D01*
X134730442Y-60065518D01*
X134730442Y-60065518D01*
G37*
G36*
X122030442Y-60065518D02*
X122096627Y-60072037D01*
X122209853Y-60106384D01*
X122266467Y-60123557D01*
X122405087Y-60197652D01*
X122422991Y-60207222D01*
X122458729Y-60236552D01*
X122560186Y-60319814D01*
X122643448Y-60421271D01*
X122672778Y-60457009D01*
X122672779Y-60457011D01*
X122756443Y-60613533D01*
X122756443Y-60613534D01*
X122807963Y-60783373D01*
X122825359Y-60960000D01*
X122807963Y-61136627D01*
X122773616Y-61249853D01*
X122756443Y-61306467D01*
X122682348Y-61445087D01*
X122672778Y-61462991D01*
X122643448Y-61498729D01*
X122560186Y-61600186D01*
X122458729Y-61683448D01*
X122422991Y-61712778D01*
X122422989Y-61712779D01*
X122266467Y-61796443D01*
X122209853Y-61813616D01*
X122096627Y-61847963D01*
X122030443Y-61854481D01*
X121964260Y-61861000D01*
X121875740Y-61861000D01*
X121809557Y-61854481D01*
X121743373Y-61847963D01*
X121630147Y-61813616D01*
X121573533Y-61796443D01*
X121417011Y-61712779D01*
X121417009Y-61712778D01*
X121381271Y-61683448D01*
X121279814Y-61600186D01*
X121196552Y-61498729D01*
X121167222Y-61462991D01*
X121157652Y-61445087D01*
X121083557Y-61306467D01*
X121066384Y-61249853D01*
X121032037Y-61136627D01*
X121014641Y-60960000D01*
X121032037Y-60783373D01*
X121083557Y-60613534D01*
X121083557Y-60613533D01*
X121167221Y-60457011D01*
X121167222Y-60457009D01*
X121196552Y-60421271D01*
X121279814Y-60319814D01*
X121381271Y-60236552D01*
X121417009Y-60207222D01*
X121434913Y-60197652D01*
X121573533Y-60123557D01*
X121630147Y-60106384D01*
X121743373Y-60072037D01*
X121809558Y-60065518D01*
X121875740Y-60059000D01*
X121964260Y-60059000D01*
X122030442Y-60065518D01*
X122030442Y-60065518D01*
G37*
G36*
X124570442Y-60065518D02*
X124636627Y-60072037D01*
X124749853Y-60106384D01*
X124806467Y-60123557D01*
X124945087Y-60197652D01*
X124962991Y-60207222D01*
X124998729Y-60236552D01*
X125100186Y-60319814D01*
X125183448Y-60421271D01*
X125212778Y-60457009D01*
X125212779Y-60457011D01*
X125296443Y-60613533D01*
X125296443Y-60613534D01*
X125347963Y-60783373D01*
X125365359Y-60960000D01*
X125347963Y-61136627D01*
X125313616Y-61249853D01*
X125296443Y-61306467D01*
X125222348Y-61445087D01*
X125212778Y-61462991D01*
X125183448Y-61498729D01*
X125100186Y-61600186D01*
X124998729Y-61683448D01*
X124962991Y-61712778D01*
X124962989Y-61712779D01*
X124806467Y-61796443D01*
X124749853Y-61813616D01*
X124636627Y-61847963D01*
X124570443Y-61854481D01*
X124504260Y-61861000D01*
X124415740Y-61861000D01*
X124349557Y-61854481D01*
X124283373Y-61847963D01*
X124170147Y-61813616D01*
X124113533Y-61796443D01*
X123957011Y-61712779D01*
X123957009Y-61712778D01*
X123921271Y-61683448D01*
X123819814Y-61600186D01*
X123736552Y-61498729D01*
X123707222Y-61462991D01*
X123697652Y-61445087D01*
X123623557Y-61306467D01*
X123606384Y-61249853D01*
X123572037Y-61136627D01*
X123554641Y-60960000D01*
X123572037Y-60783373D01*
X123623557Y-60613534D01*
X123623557Y-60613533D01*
X123707221Y-60457011D01*
X123707222Y-60457009D01*
X123736552Y-60421271D01*
X123819814Y-60319814D01*
X123921271Y-60236552D01*
X123957009Y-60207222D01*
X123974913Y-60197652D01*
X124113533Y-60123557D01*
X124170147Y-60106384D01*
X124283373Y-60072037D01*
X124349558Y-60065518D01*
X124415740Y-60059000D01*
X124504260Y-60059000D01*
X124570442Y-60065518D01*
X124570442Y-60065518D01*
G37*
G36*
X139810442Y-60065518D02*
X139876627Y-60072037D01*
X139989853Y-60106384D01*
X140046467Y-60123557D01*
X140185087Y-60197652D01*
X140202991Y-60207222D01*
X140238729Y-60236552D01*
X140340186Y-60319814D01*
X140423448Y-60421271D01*
X140452778Y-60457009D01*
X140452779Y-60457011D01*
X140536443Y-60613533D01*
X140536443Y-60613534D01*
X140587963Y-60783373D01*
X140605359Y-60960000D01*
X140587963Y-61136627D01*
X140553616Y-61249853D01*
X140536443Y-61306467D01*
X140462348Y-61445087D01*
X140452778Y-61462991D01*
X140423448Y-61498729D01*
X140340186Y-61600186D01*
X140238729Y-61683448D01*
X140202991Y-61712778D01*
X140202989Y-61712779D01*
X140046467Y-61796443D01*
X139989853Y-61813616D01*
X139876627Y-61847963D01*
X139810443Y-61854481D01*
X139744260Y-61861000D01*
X139655740Y-61861000D01*
X139589557Y-61854481D01*
X139523373Y-61847963D01*
X139410147Y-61813616D01*
X139353533Y-61796443D01*
X139197011Y-61712779D01*
X139197009Y-61712778D01*
X139161271Y-61683448D01*
X139059814Y-61600186D01*
X138976552Y-61498729D01*
X138947222Y-61462991D01*
X138937652Y-61445087D01*
X138863557Y-61306467D01*
X138846384Y-61249853D01*
X138812037Y-61136627D01*
X138794641Y-60960000D01*
X138812037Y-60783373D01*
X138863557Y-60613534D01*
X138863557Y-60613533D01*
X138947221Y-60457011D01*
X138947222Y-60457009D01*
X138976552Y-60421271D01*
X139059814Y-60319814D01*
X139161271Y-60236552D01*
X139197009Y-60207222D01*
X139214913Y-60197652D01*
X139353533Y-60123557D01*
X139410147Y-60106384D01*
X139523373Y-60072037D01*
X139589558Y-60065518D01*
X139655740Y-60059000D01*
X139744260Y-60059000D01*
X139810442Y-60065518D01*
X139810442Y-60065518D01*
G37*
G36*
X137270442Y-60065518D02*
X137336627Y-60072037D01*
X137449853Y-60106384D01*
X137506467Y-60123557D01*
X137645087Y-60197652D01*
X137662991Y-60207222D01*
X137698729Y-60236552D01*
X137800186Y-60319814D01*
X137883448Y-60421271D01*
X137912778Y-60457009D01*
X137912779Y-60457011D01*
X137996443Y-60613533D01*
X137996443Y-60613534D01*
X138047963Y-60783373D01*
X138065359Y-60960000D01*
X138047963Y-61136627D01*
X138013616Y-61249853D01*
X137996443Y-61306467D01*
X137922348Y-61445087D01*
X137912778Y-61462991D01*
X137883448Y-61498729D01*
X137800186Y-61600186D01*
X137698729Y-61683448D01*
X137662991Y-61712778D01*
X137662989Y-61712779D01*
X137506467Y-61796443D01*
X137449853Y-61813616D01*
X137336627Y-61847963D01*
X137270443Y-61854481D01*
X137204260Y-61861000D01*
X137115740Y-61861000D01*
X137049557Y-61854481D01*
X136983373Y-61847963D01*
X136870147Y-61813616D01*
X136813533Y-61796443D01*
X136657011Y-61712779D01*
X136657009Y-61712778D01*
X136621271Y-61683448D01*
X136519814Y-61600186D01*
X136436552Y-61498729D01*
X136407222Y-61462991D01*
X136397652Y-61445087D01*
X136323557Y-61306467D01*
X136306384Y-61249853D01*
X136272037Y-61136627D01*
X136254641Y-60960000D01*
X136272037Y-60783373D01*
X136323557Y-60613534D01*
X136323557Y-60613533D01*
X136407221Y-60457011D01*
X136407222Y-60457009D01*
X136436552Y-60421271D01*
X136519814Y-60319814D01*
X136621271Y-60236552D01*
X136657009Y-60207222D01*
X136674913Y-60197652D01*
X136813533Y-60123557D01*
X136870147Y-60106384D01*
X136983373Y-60072037D01*
X137049558Y-60065518D01*
X137115740Y-60059000D01*
X137204260Y-60059000D01*
X137270442Y-60065518D01*
X137270442Y-60065518D01*
G37*
G36*
X129650442Y-60065518D02*
X129716627Y-60072037D01*
X129829853Y-60106384D01*
X129886467Y-60123557D01*
X130025087Y-60197652D01*
X130042991Y-60207222D01*
X130078729Y-60236552D01*
X130180186Y-60319814D01*
X130263448Y-60421271D01*
X130292778Y-60457009D01*
X130292779Y-60457011D01*
X130376443Y-60613533D01*
X130376443Y-60613534D01*
X130427963Y-60783373D01*
X130445359Y-60960000D01*
X130427963Y-61136627D01*
X130393616Y-61249853D01*
X130376443Y-61306467D01*
X130302348Y-61445087D01*
X130292778Y-61462991D01*
X130263448Y-61498729D01*
X130180186Y-61600186D01*
X130078729Y-61683448D01*
X130042991Y-61712778D01*
X130042989Y-61712779D01*
X129886467Y-61796443D01*
X129829853Y-61813616D01*
X129716627Y-61847963D01*
X129650443Y-61854481D01*
X129584260Y-61861000D01*
X129495740Y-61861000D01*
X129429557Y-61854481D01*
X129363373Y-61847963D01*
X129250147Y-61813616D01*
X129193533Y-61796443D01*
X129037011Y-61712779D01*
X129037009Y-61712778D01*
X129001271Y-61683448D01*
X128899814Y-61600186D01*
X128816552Y-61498729D01*
X128787222Y-61462991D01*
X128777652Y-61445087D01*
X128703557Y-61306467D01*
X128686384Y-61249853D01*
X128652037Y-61136627D01*
X128634641Y-60960000D01*
X128652037Y-60783373D01*
X128703557Y-60613534D01*
X128703557Y-60613533D01*
X128787221Y-60457011D01*
X128787222Y-60457009D01*
X128816552Y-60421271D01*
X128899814Y-60319814D01*
X129001271Y-60236552D01*
X129037009Y-60207222D01*
X129054913Y-60197652D01*
X129193533Y-60123557D01*
X129250147Y-60106384D01*
X129363373Y-60072037D01*
X129429558Y-60065518D01*
X129495740Y-60059000D01*
X129584260Y-60059000D01*
X129650442Y-60065518D01*
X129650442Y-60065518D01*
G37*
G36*
X132190442Y-60065518D02*
X132256627Y-60072037D01*
X132369853Y-60106384D01*
X132426467Y-60123557D01*
X132565087Y-60197652D01*
X132582991Y-60207222D01*
X132618729Y-60236552D01*
X132720186Y-60319814D01*
X132803448Y-60421271D01*
X132832778Y-60457009D01*
X132832779Y-60457011D01*
X132916443Y-60613533D01*
X132916443Y-60613534D01*
X132967963Y-60783373D01*
X132985359Y-60960000D01*
X132967963Y-61136627D01*
X132933616Y-61249853D01*
X132916443Y-61306467D01*
X132842348Y-61445087D01*
X132832778Y-61462991D01*
X132803448Y-61498729D01*
X132720186Y-61600186D01*
X132618729Y-61683448D01*
X132582991Y-61712778D01*
X132582989Y-61712779D01*
X132426467Y-61796443D01*
X132369853Y-61813616D01*
X132256627Y-61847963D01*
X132190443Y-61854481D01*
X132124260Y-61861000D01*
X132035740Y-61861000D01*
X131969557Y-61854481D01*
X131903373Y-61847963D01*
X131790147Y-61813616D01*
X131733533Y-61796443D01*
X131577011Y-61712779D01*
X131577009Y-61712778D01*
X131541271Y-61683448D01*
X131439814Y-61600186D01*
X131356552Y-61498729D01*
X131327222Y-61462991D01*
X131317652Y-61445087D01*
X131243557Y-61306467D01*
X131226384Y-61249853D01*
X131192037Y-61136627D01*
X131174641Y-60960000D01*
X131192037Y-60783373D01*
X131243557Y-60613534D01*
X131243557Y-60613533D01*
X131327221Y-60457011D01*
X131327222Y-60457009D01*
X131356552Y-60421271D01*
X131439814Y-60319814D01*
X131541271Y-60236552D01*
X131577009Y-60207222D01*
X131594913Y-60197652D01*
X131733533Y-60123557D01*
X131790147Y-60106384D01*
X131903373Y-60072037D01*
X131969558Y-60065518D01*
X132035740Y-60059000D01*
X132124260Y-60059000D01*
X132190442Y-60065518D01*
X132190442Y-60065518D01*
G37*
G36*
X142350442Y-60065518D02*
X142416627Y-60072037D01*
X142529853Y-60106384D01*
X142586467Y-60123557D01*
X142725087Y-60197652D01*
X142742991Y-60207222D01*
X142778729Y-60236552D01*
X142880186Y-60319814D01*
X142963448Y-60421271D01*
X142992778Y-60457009D01*
X142992779Y-60457011D01*
X143076443Y-60613533D01*
X143076443Y-60613534D01*
X143127963Y-60783373D01*
X143145359Y-60960000D01*
X143127963Y-61136627D01*
X143093616Y-61249853D01*
X143076443Y-61306467D01*
X143002348Y-61445087D01*
X142992778Y-61462991D01*
X142963448Y-61498729D01*
X142880186Y-61600186D01*
X142778729Y-61683448D01*
X142742991Y-61712778D01*
X142742989Y-61712779D01*
X142586467Y-61796443D01*
X142529853Y-61813616D01*
X142416627Y-61847963D01*
X142350443Y-61854481D01*
X142284260Y-61861000D01*
X142195740Y-61861000D01*
X142129557Y-61854481D01*
X142063373Y-61847963D01*
X141950147Y-61813616D01*
X141893533Y-61796443D01*
X141737011Y-61712779D01*
X141737009Y-61712778D01*
X141701271Y-61683448D01*
X141599814Y-61600186D01*
X141516552Y-61498729D01*
X141487222Y-61462991D01*
X141477652Y-61445087D01*
X141403557Y-61306467D01*
X141386384Y-61249853D01*
X141352037Y-61136627D01*
X141334641Y-60960000D01*
X141352037Y-60783373D01*
X141403557Y-60613534D01*
X141403557Y-60613533D01*
X141487221Y-60457011D01*
X141487222Y-60457009D01*
X141516552Y-60421271D01*
X141599814Y-60319814D01*
X141701271Y-60236552D01*
X141737009Y-60207222D01*
X141754913Y-60197652D01*
X141893533Y-60123557D01*
X141950147Y-60106384D01*
X142063373Y-60072037D01*
X142129558Y-60065518D01*
X142195740Y-60059000D01*
X142284260Y-60059000D01*
X142350442Y-60065518D01*
X142350442Y-60065518D01*
G37*
G36*
X127110442Y-60065518D02*
X127176627Y-60072037D01*
X127289853Y-60106384D01*
X127346467Y-60123557D01*
X127485087Y-60197652D01*
X127502991Y-60207222D01*
X127538729Y-60236552D01*
X127640186Y-60319814D01*
X127723448Y-60421271D01*
X127752778Y-60457009D01*
X127752779Y-60457011D01*
X127836443Y-60613533D01*
X127836443Y-60613534D01*
X127887963Y-60783373D01*
X127905359Y-60960000D01*
X127887963Y-61136627D01*
X127853616Y-61249853D01*
X127836443Y-61306467D01*
X127762348Y-61445087D01*
X127752778Y-61462991D01*
X127723448Y-61498729D01*
X127640186Y-61600186D01*
X127538729Y-61683448D01*
X127502991Y-61712778D01*
X127502989Y-61712779D01*
X127346467Y-61796443D01*
X127289853Y-61813616D01*
X127176627Y-61847963D01*
X127110443Y-61854481D01*
X127044260Y-61861000D01*
X126955740Y-61861000D01*
X126889557Y-61854481D01*
X126823373Y-61847963D01*
X126710147Y-61813616D01*
X126653533Y-61796443D01*
X126497011Y-61712779D01*
X126497009Y-61712778D01*
X126461271Y-61683448D01*
X126359814Y-61600186D01*
X126276552Y-61498729D01*
X126247222Y-61462991D01*
X126237652Y-61445087D01*
X126163557Y-61306467D01*
X126146384Y-61249853D01*
X126112037Y-61136627D01*
X126094641Y-60960000D01*
X126112037Y-60783373D01*
X126163557Y-60613534D01*
X126163557Y-60613533D01*
X126247221Y-60457011D01*
X126247222Y-60457009D01*
X126276552Y-60421271D01*
X126359814Y-60319814D01*
X126461271Y-60236552D01*
X126497009Y-60207222D01*
X126514913Y-60197652D01*
X126653533Y-60123557D01*
X126710147Y-60106384D01*
X126823373Y-60072037D01*
X126889558Y-60065518D01*
X126955740Y-60059000D01*
X127044260Y-60059000D01*
X127110442Y-60065518D01*
X127110442Y-60065518D01*
G37*
G36*
X124570443Y-57525519D02*
X124636627Y-57532037D01*
X124749853Y-57566384D01*
X124806467Y-57583557D01*
X124945087Y-57657652D01*
X124962991Y-57667222D01*
X124998729Y-57696552D01*
X125100186Y-57779814D01*
X125183448Y-57881271D01*
X125212778Y-57917009D01*
X125212779Y-57917011D01*
X125296443Y-58073533D01*
X125296443Y-58073534D01*
X125347963Y-58243373D01*
X125365359Y-58420000D01*
X125347963Y-58596627D01*
X125313616Y-58709853D01*
X125296443Y-58766467D01*
X125222348Y-58905087D01*
X125212778Y-58922991D01*
X125183448Y-58958729D01*
X125100186Y-59060186D01*
X124998729Y-59143448D01*
X124962991Y-59172778D01*
X124962989Y-59172779D01*
X124806467Y-59256443D01*
X124749853Y-59273616D01*
X124636627Y-59307963D01*
X124570442Y-59314482D01*
X124504260Y-59321000D01*
X124415740Y-59321000D01*
X124349558Y-59314482D01*
X124283373Y-59307963D01*
X124170147Y-59273616D01*
X124113533Y-59256443D01*
X123957011Y-59172779D01*
X123957009Y-59172778D01*
X123921271Y-59143448D01*
X123819814Y-59060186D01*
X123736552Y-58958729D01*
X123707222Y-58922991D01*
X123697652Y-58905087D01*
X123623557Y-58766467D01*
X123606384Y-58709853D01*
X123572037Y-58596627D01*
X123554641Y-58420000D01*
X123572037Y-58243373D01*
X123623557Y-58073534D01*
X123623557Y-58073533D01*
X123707221Y-57917011D01*
X123707222Y-57917009D01*
X123736552Y-57881271D01*
X123819814Y-57779814D01*
X123921271Y-57696552D01*
X123957009Y-57667222D01*
X123974913Y-57657652D01*
X124113533Y-57583557D01*
X124170147Y-57566384D01*
X124283373Y-57532037D01*
X124349557Y-57525519D01*
X124415740Y-57519000D01*
X124504260Y-57519000D01*
X124570443Y-57525519D01*
X124570443Y-57525519D01*
G37*
G36*
X142350443Y-57525519D02*
X142416627Y-57532037D01*
X142529853Y-57566384D01*
X142586467Y-57583557D01*
X142725087Y-57657652D01*
X142742991Y-57667222D01*
X142778729Y-57696552D01*
X142880186Y-57779814D01*
X142963448Y-57881271D01*
X142992778Y-57917009D01*
X142992779Y-57917011D01*
X143076443Y-58073533D01*
X143076443Y-58073534D01*
X143127963Y-58243373D01*
X143145359Y-58420000D01*
X143127963Y-58596627D01*
X143093616Y-58709853D01*
X143076443Y-58766467D01*
X143002348Y-58905087D01*
X142992778Y-58922991D01*
X142963448Y-58958729D01*
X142880186Y-59060186D01*
X142778729Y-59143448D01*
X142742991Y-59172778D01*
X142742989Y-59172779D01*
X142586467Y-59256443D01*
X142529853Y-59273616D01*
X142416627Y-59307963D01*
X142350442Y-59314482D01*
X142284260Y-59321000D01*
X142195740Y-59321000D01*
X142129558Y-59314482D01*
X142063373Y-59307963D01*
X141950147Y-59273616D01*
X141893533Y-59256443D01*
X141737011Y-59172779D01*
X141737009Y-59172778D01*
X141701271Y-59143448D01*
X141599814Y-59060186D01*
X141516552Y-58958729D01*
X141487222Y-58922991D01*
X141477652Y-58905087D01*
X141403557Y-58766467D01*
X141386384Y-58709853D01*
X141352037Y-58596627D01*
X141334641Y-58420000D01*
X141352037Y-58243373D01*
X141403557Y-58073534D01*
X141403557Y-58073533D01*
X141487221Y-57917011D01*
X141487222Y-57917009D01*
X141516552Y-57881271D01*
X141599814Y-57779814D01*
X141701271Y-57696552D01*
X141737009Y-57667222D01*
X141754913Y-57657652D01*
X141893533Y-57583557D01*
X141950147Y-57566384D01*
X142063373Y-57532037D01*
X142129557Y-57525519D01*
X142195740Y-57519000D01*
X142284260Y-57519000D01*
X142350443Y-57525519D01*
X142350443Y-57525519D01*
G37*
G36*
X139810443Y-57525519D02*
X139876627Y-57532037D01*
X139989853Y-57566384D01*
X140046467Y-57583557D01*
X140185087Y-57657652D01*
X140202991Y-57667222D01*
X140238729Y-57696552D01*
X140340186Y-57779814D01*
X140423448Y-57881271D01*
X140452778Y-57917009D01*
X140452779Y-57917011D01*
X140536443Y-58073533D01*
X140536443Y-58073534D01*
X140587963Y-58243373D01*
X140605359Y-58420000D01*
X140587963Y-58596627D01*
X140553616Y-58709853D01*
X140536443Y-58766467D01*
X140462348Y-58905087D01*
X140452778Y-58922991D01*
X140423448Y-58958729D01*
X140340186Y-59060186D01*
X140238729Y-59143448D01*
X140202991Y-59172778D01*
X140202989Y-59172779D01*
X140046467Y-59256443D01*
X139989853Y-59273616D01*
X139876627Y-59307963D01*
X139810442Y-59314482D01*
X139744260Y-59321000D01*
X139655740Y-59321000D01*
X139589558Y-59314482D01*
X139523373Y-59307963D01*
X139410147Y-59273616D01*
X139353533Y-59256443D01*
X139197011Y-59172779D01*
X139197009Y-59172778D01*
X139161271Y-59143448D01*
X139059814Y-59060186D01*
X138976552Y-58958729D01*
X138947222Y-58922991D01*
X138937652Y-58905087D01*
X138863557Y-58766467D01*
X138846384Y-58709853D01*
X138812037Y-58596627D01*
X138794641Y-58420000D01*
X138812037Y-58243373D01*
X138863557Y-58073534D01*
X138863557Y-58073533D01*
X138947221Y-57917011D01*
X138947222Y-57917009D01*
X138976552Y-57881271D01*
X139059814Y-57779814D01*
X139161271Y-57696552D01*
X139197009Y-57667222D01*
X139214913Y-57657652D01*
X139353533Y-57583557D01*
X139410147Y-57566384D01*
X139523373Y-57532037D01*
X139589557Y-57525519D01*
X139655740Y-57519000D01*
X139744260Y-57519000D01*
X139810443Y-57525519D01*
X139810443Y-57525519D01*
G37*
G36*
X122030443Y-57525519D02*
X122096627Y-57532037D01*
X122209853Y-57566384D01*
X122266467Y-57583557D01*
X122405087Y-57657652D01*
X122422991Y-57667222D01*
X122458729Y-57696552D01*
X122560186Y-57779814D01*
X122643448Y-57881271D01*
X122672778Y-57917009D01*
X122672779Y-57917011D01*
X122756443Y-58073533D01*
X122756443Y-58073534D01*
X122807963Y-58243373D01*
X122825359Y-58420000D01*
X122807963Y-58596627D01*
X122773616Y-58709853D01*
X122756443Y-58766467D01*
X122682348Y-58905087D01*
X122672778Y-58922991D01*
X122643448Y-58958729D01*
X122560186Y-59060186D01*
X122458729Y-59143448D01*
X122422991Y-59172778D01*
X122422989Y-59172779D01*
X122266467Y-59256443D01*
X122209853Y-59273616D01*
X122096627Y-59307963D01*
X122030442Y-59314482D01*
X121964260Y-59321000D01*
X121875740Y-59321000D01*
X121809558Y-59314482D01*
X121743373Y-59307963D01*
X121630147Y-59273616D01*
X121573533Y-59256443D01*
X121417011Y-59172779D01*
X121417009Y-59172778D01*
X121381271Y-59143448D01*
X121279814Y-59060186D01*
X121196552Y-58958729D01*
X121167222Y-58922991D01*
X121157652Y-58905087D01*
X121083557Y-58766467D01*
X121066384Y-58709853D01*
X121032037Y-58596627D01*
X121014641Y-58420000D01*
X121032037Y-58243373D01*
X121083557Y-58073534D01*
X121083557Y-58073533D01*
X121167221Y-57917011D01*
X121167222Y-57917009D01*
X121196552Y-57881271D01*
X121279814Y-57779814D01*
X121381271Y-57696552D01*
X121417009Y-57667222D01*
X121434913Y-57657652D01*
X121573533Y-57583557D01*
X121630147Y-57566384D01*
X121743373Y-57532037D01*
X121809557Y-57525519D01*
X121875740Y-57519000D01*
X121964260Y-57519000D01*
X122030443Y-57525519D01*
X122030443Y-57525519D01*
G37*
G36*
X132190443Y-57525519D02*
X132256627Y-57532037D01*
X132369853Y-57566384D01*
X132426467Y-57583557D01*
X132565087Y-57657652D01*
X132582991Y-57667222D01*
X132618729Y-57696552D01*
X132720186Y-57779814D01*
X132803448Y-57881271D01*
X132832778Y-57917009D01*
X132832779Y-57917011D01*
X132916443Y-58073533D01*
X132916443Y-58073534D01*
X132967963Y-58243373D01*
X132985359Y-58420000D01*
X132967963Y-58596627D01*
X132933616Y-58709853D01*
X132916443Y-58766467D01*
X132842348Y-58905087D01*
X132832778Y-58922991D01*
X132803448Y-58958729D01*
X132720186Y-59060186D01*
X132618729Y-59143448D01*
X132582991Y-59172778D01*
X132582989Y-59172779D01*
X132426467Y-59256443D01*
X132369853Y-59273616D01*
X132256627Y-59307963D01*
X132190442Y-59314482D01*
X132124260Y-59321000D01*
X132035740Y-59321000D01*
X131969558Y-59314482D01*
X131903373Y-59307963D01*
X131790147Y-59273616D01*
X131733533Y-59256443D01*
X131577011Y-59172779D01*
X131577009Y-59172778D01*
X131541271Y-59143448D01*
X131439814Y-59060186D01*
X131356552Y-58958729D01*
X131327222Y-58922991D01*
X131317652Y-58905087D01*
X131243557Y-58766467D01*
X131226384Y-58709853D01*
X131192037Y-58596627D01*
X131174641Y-58420000D01*
X131192037Y-58243373D01*
X131243557Y-58073534D01*
X131243557Y-58073533D01*
X131327221Y-57917011D01*
X131327222Y-57917009D01*
X131356552Y-57881271D01*
X131439814Y-57779814D01*
X131541271Y-57696552D01*
X131577009Y-57667222D01*
X131594913Y-57657652D01*
X131733533Y-57583557D01*
X131790147Y-57566384D01*
X131903373Y-57532037D01*
X131969557Y-57525519D01*
X132035740Y-57519000D01*
X132124260Y-57519000D01*
X132190443Y-57525519D01*
X132190443Y-57525519D01*
G37*
G36*
X127110443Y-57525519D02*
X127176627Y-57532037D01*
X127289853Y-57566384D01*
X127346467Y-57583557D01*
X127485087Y-57657652D01*
X127502991Y-57667222D01*
X127538729Y-57696552D01*
X127640186Y-57779814D01*
X127723448Y-57881271D01*
X127752778Y-57917009D01*
X127752779Y-57917011D01*
X127836443Y-58073533D01*
X127836443Y-58073534D01*
X127887963Y-58243373D01*
X127905359Y-58420000D01*
X127887963Y-58596627D01*
X127853616Y-58709853D01*
X127836443Y-58766467D01*
X127762348Y-58905087D01*
X127752778Y-58922991D01*
X127723448Y-58958729D01*
X127640186Y-59060186D01*
X127538729Y-59143448D01*
X127502991Y-59172778D01*
X127502989Y-59172779D01*
X127346467Y-59256443D01*
X127289853Y-59273616D01*
X127176627Y-59307963D01*
X127110442Y-59314482D01*
X127044260Y-59321000D01*
X126955740Y-59321000D01*
X126889558Y-59314482D01*
X126823373Y-59307963D01*
X126710147Y-59273616D01*
X126653533Y-59256443D01*
X126497011Y-59172779D01*
X126497009Y-59172778D01*
X126461271Y-59143448D01*
X126359814Y-59060186D01*
X126276552Y-58958729D01*
X126247222Y-58922991D01*
X126237652Y-58905087D01*
X126163557Y-58766467D01*
X126146384Y-58709853D01*
X126112037Y-58596627D01*
X126094641Y-58420000D01*
X126112037Y-58243373D01*
X126163557Y-58073534D01*
X126163557Y-58073533D01*
X126247221Y-57917011D01*
X126247222Y-57917009D01*
X126276552Y-57881271D01*
X126359814Y-57779814D01*
X126461271Y-57696552D01*
X126497009Y-57667222D01*
X126514913Y-57657652D01*
X126653533Y-57583557D01*
X126710147Y-57566384D01*
X126823373Y-57532037D01*
X126889557Y-57525519D01*
X126955740Y-57519000D01*
X127044260Y-57519000D01*
X127110443Y-57525519D01*
X127110443Y-57525519D01*
G37*
G36*
X129650443Y-57525519D02*
X129716627Y-57532037D01*
X129829853Y-57566384D01*
X129886467Y-57583557D01*
X130025087Y-57657652D01*
X130042991Y-57667222D01*
X130078729Y-57696552D01*
X130180186Y-57779814D01*
X130263448Y-57881271D01*
X130292778Y-57917009D01*
X130292779Y-57917011D01*
X130376443Y-58073533D01*
X130376443Y-58073534D01*
X130427963Y-58243373D01*
X130445359Y-58420000D01*
X130427963Y-58596627D01*
X130393616Y-58709853D01*
X130376443Y-58766467D01*
X130302348Y-58905087D01*
X130292778Y-58922991D01*
X130263448Y-58958729D01*
X130180186Y-59060186D01*
X130078729Y-59143448D01*
X130042991Y-59172778D01*
X130042989Y-59172779D01*
X129886467Y-59256443D01*
X129829853Y-59273616D01*
X129716627Y-59307963D01*
X129650442Y-59314482D01*
X129584260Y-59321000D01*
X129495740Y-59321000D01*
X129429558Y-59314482D01*
X129363373Y-59307963D01*
X129250147Y-59273616D01*
X129193533Y-59256443D01*
X129037011Y-59172779D01*
X129037009Y-59172778D01*
X129001271Y-59143448D01*
X128899814Y-59060186D01*
X128816552Y-58958729D01*
X128787222Y-58922991D01*
X128777652Y-58905087D01*
X128703557Y-58766467D01*
X128686384Y-58709853D01*
X128652037Y-58596627D01*
X128634641Y-58420000D01*
X128652037Y-58243373D01*
X128703557Y-58073534D01*
X128703557Y-58073533D01*
X128787221Y-57917011D01*
X128787222Y-57917009D01*
X128816552Y-57881271D01*
X128899814Y-57779814D01*
X129001271Y-57696552D01*
X129037009Y-57667222D01*
X129054913Y-57657652D01*
X129193533Y-57583557D01*
X129250147Y-57566384D01*
X129363373Y-57532037D01*
X129429557Y-57525519D01*
X129495740Y-57519000D01*
X129584260Y-57519000D01*
X129650443Y-57525519D01*
X129650443Y-57525519D01*
G37*
G36*
X134730443Y-57525519D02*
X134796627Y-57532037D01*
X134909853Y-57566384D01*
X134966467Y-57583557D01*
X135105087Y-57657652D01*
X135122991Y-57667222D01*
X135158729Y-57696552D01*
X135260186Y-57779814D01*
X135343448Y-57881271D01*
X135372778Y-57917009D01*
X135372779Y-57917011D01*
X135456443Y-58073533D01*
X135456443Y-58073534D01*
X135507963Y-58243373D01*
X135525359Y-58420000D01*
X135507963Y-58596627D01*
X135473616Y-58709853D01*
X135456443Y-58766467D01*
X135382348Y-58905087D01*
X135372778Y-58922991D01*
X135343448Y-58958729D01*
X135260186Y-59060186D01*
X135158729Y-59143448D01*
X135122991Y-59172778D01*
X135122989Y-59172779D01*
X134966467Y-59256443D01*
X134909853Y-59273616D01*
X134796627Y-59307963D01*
X134730442Y-59314482D01*
X134664260Y-59321000D01*
X134575740Y-59321000D01*
X134509558Y-59314482D01*
X134443373Y-59307963D01*
X134330147Y-59273616D01*
X134273533Y-59256443D01*
X134117011Y-59172779D01*
X134117009Y-59172778D01*
X134081271Y-59143448D01*
X133979814Y-59060186D01*
X133896552Y-58958729D01*
X133867222Y-58922991D01*
X133857652Y-58905087D01*
X133783557Y-58766467D01*
X133766384Y-58709853D01*
X133732037Y-58596627D01*
X133714641Y-58420000D01*
X133732037Y-58243373D01*
X133783557Y-58073534D01*
X133783557Y-58073533D01*
X133867221Y-57917011D01*
X133867222Y-57917009D01*
X133896552Y-57881271D01*
X133979814Y-57779814D01*
X134081271Y-57696552D01*
X134117009Y-57667222D01*
X134134913Y-57657652D01*
X134273533Y-57583557D01*
X134330147Y-57566384D01*
X134443373Y-57532037D01*
X134509557Y-57525519D01*
X134575740Y-57519000D01*
X134664260Y-57519000D01*
X134730443Y-57525519D01*
X134730443Y-57525519D01*
G37*
G36*
X137270443Y-57525519D02*
X137336627Y-57532037D01*
X137449853Y-57566384D01*
X137506467Y-57583557D01*
X137645087Y-57657652D01*
X137662991Y-57667222D01*
X137698729Y-57696552D01*
X137800186Y-57779814D01*
X137883448Y-57881271D01*
X137912778Y-57917009D01*
X137912779Y-57917011D01*
X137996443Y-58073533D01*
X137996443Y-58073534D01*
X138047963Y-58243373D01*
X138065359Y-58420000D01*
X138047963Y-58596627D01*
X138013616Y-58709853D01*
X137996443Y-58766467D01*
X137922348Y-58905087D01*
X137912778Y-58922991D01*
X137883448Y-58958729D01*
X137800186Y-59060186D01*
X137698729Y-59143448D01*
X137662991Y-59172778D01*
X137662989Y-59172779D01*
X137506467Y-59256443D01*
X137449853Y-59273616D01*
X137336627Y-59307963D01*
X137270442Y-59314482D01*
X137204260Y-59321000D01*
X137115740Y-59321000D01*
X137049558Y-59314482D01*
X136983373Y-59307963D01*
X136870147Y-59273616D01*
X136813533Y-59256443D01*
X136657011Y-59172779D01*
X136657009Y-59172778D01*
X136621271Y-59143448D01*
X136519814Y-59060186D01*
X136436552Y-58958729D01*
X136407222Y-58922991D01*
X136397652Y-58905087D01*
X136323557Y-58766467D01*
X136306384Y-58709853D01*
X136272037Y-58596627D01*
X136254641Y-58420000D01*
X136272037Y-58243373D01*
X136323557Y-58073534D01*
X136323557Y-58073533D01*
X136407221Y-57917011D01*
X136407222Y-57917009D01*
X136436552Y-57881271D01*
X136519814Y-57779814D01*
X136621271Y-57696552D01*
X136657009Y-57667222D01*
X136674913Y-57657652D01*
X136813533Y-57583557D01*
X136870147Y-57566384D01*
X136983373Y-57532037D01*
X137049557Y-57525519D01*
X137115740Y-57519000D01*
X137204260Y-57519000D01*
X137270443Y-57525519D01*
X137270443Y-57525519D01*
G37*
G36*
X139810443Y-54985519D02*
X139876627Y-54992037D01*
X139989853Y-55026384D01*
X140046467Y-55043557D01*
X140185087Y-55117652D01*
X140202991Y-55127222D01*
X140238729Y-55156552D01*
X140340186Y-55239814D01*
X140423448Y-55341271D01*
X140452778Y-55377009D01*
X140452779Y-55377011D01*
X140536443Y-55533533D01*
X140536443Y-55533534D01*
X140587963Y-55703373D01*
X140605359Y-55880000D01*
X140587963Y-56056627D01*
X140553616Y-56169853D01*
X140536443Y-56226467D01*
X140462348Y-56365087D01*
X140452778Y-56382991D01*
X140423448Y-56418729D01*
X140340186Y-56520186D01*
X140238729Y-56603448D01*
X140202991Y-56632778D01*
X140202989Y-56632779D01*
X140046467Y-56716443D01*
X139989853Y-56733616D01*
X139876627Y-56767963D01*
X139810443Y-56774481D01*
X139744260Y-56781000D01*
X139655740Y-56781000D01*
X139589557Y-56774481D01*
X139523373Y-56767963D01*
X139410147Y-56733616D01*
X139353533Y-56716443D01*
X139197011Y-56632779D01*
X139197009Y-56632778D01*
X139161271Y-56603448D01*
X139059814Y-56520186D01*
X138976552Y-56418729D01*
X138947222Y-56382991D01*
X138937652Y-56365087D01*
X138863557Y-56226467D01*
X138846384Y-56169853D01*
X138812037Y-56056627D01*
X138794641Y-55880000D01*
X138812037Y-55703373D01*
X138863557Y-55533534D01*
X138863557Y-55533533D01*
X138947221Y-55377011D01*
X138947222Y-55377009D01*
X138976552Y-55341271D01*
X139059814Y-55239814D01*
X139161271Y-55156552D01*
X139197009Y-55127222D01*
X139214913Y-55117652D01*
X139353533Y-55043557D01*
X139410147Y-55026384D01*
X139523373Y-54992037D01*
X139589557Y-54985519D01*
X139655740Y-54979000D01*
X139744260Y-54979000D01*
X139810443Y-54985519D01*
X139810443Y-54985519D01*
G37*
G36*
X137270443Y-54985519D02*
X137336627Y-54992037D01*
X137449853Y-55026384D01*
X137506467Y-55043557D01*
X137645087Y-55117652D01*
X137662991Y-55127222D01*
X137698729Y-55156552D01*
X137800186Y-55239814D01*
X137883448Y-55341271D01*
X137912778Y-55377009D01*
X137912779Y-55377011D01*
X137996443Y-55533533D01*
X137996443Y-55533534D01*
X138047963Y-55703373D01*
X138065359Y-55880000D01*
X138047963Y-56056627D01*
X138013616Y-56169853D01*
X137996443Y-56226467D01*
X137922348Y-56365087D01*
X137912778Y-56382991D01*
X137883448Y-56418729D01*
X137800186Y-56520186D01*
X137698729Y-56603448D01*
X137662991Y-56632778D01*
X137662989Y-56632779D01*
X137506467Y-56716443D01*
X137449853Y-56733616D01*
X137336627Y-56767963D01*
X137270443Y-56774481D01*
X137204260Y-56781000D01*
X137115740Y-56781000D01*
X137049557Y-56774481D01*
X136983373Y-56767963D01*
X136870147Y-56733616D01*
X136813533Y-56716443D01*
X136657011Y-56632779D01*
X136657009Y-56632778D01*
X136621271Y-56603448D01*
X136519814Y-56520186D01*
X136436552Y-56418729D01*
X136407222Y-56382991D01*
X136397652Y-56365087D01*
X136323557Y-56226467D01*
X136306384Y-56169853D01*
X136272037Y-56056627D01*
X136254641Y-55880000D01*
X136272037Y-55703373D01*
X136323557Y-55533534D01*
X136323557Y-55533533D01*
X136407221Y-55377011D01*
X136407222Y-55377009D01*
X136436552Y-55341271D01*
X136519814Y-55239814D01*
X136621271Y-55156552D01*
X136657009Y-55127222D01*
X136674913Y-55117652D01*
X136813533Y-55043557D01*
X136870147Y-55026384D01*
X136983373Y-54992037D01*
X137049557Y-54985519D01*
X137115740Y-54979000D01*
X137204260Y-54979000D01*
X137270443Y-54985519D01*
X137270443Y-54985519D01*
G37*
G36*
X142350443Y-54985519D02*
X142416627Y-54992037D01*
X142529853Y-55026384D01*
X142586467Y-55043557D01*
X142725087Y-55117652D01*
X142742991Y-55127222D01*
X142778729Y-55156552D01*
X142880186Y-55239814D01*
X142963448Y-55341271D01*
X142992778Y-55377009D01*
X142992779Y-55377011D01*
X143076443Y-55533533D01*
X143076443Y-55533534D01*
X143127963Y-55703373D01*
X143145359Y-55880000D01*
X143127963Y-56056627D01*
X143093616Y-56169853D01*
X143076443Y-56226467D01*
X143002348Y-56365087D01*
X142992778Y-56382991D01*
X142963448Y-56418729D01*
X142880186Y-56520186D01*
X142778729Y-56603448D01*
X142742991Y-56632778D01*
X142742989Y-56632779D01*
X142586467Y-56716443D01*
X142529853Y-56733616D01*
X142416627Y-56767963D01*
X142350443Y-56774481D01*
X142284260Y-56781000D01*
X142195740Y-56781000D01*
X142129557Y-56774481D01*
X142063373Y-56767963D01*
X141950147Y-56733616D01*
X141893533Y-56716443D01*
X141737011Y-56632779D01*
X141737009Y-56632778D01*
X141701271Y-56603448D01*
X141599814Y-56520186D01*
X141516552Y-56418729D01*
X141487222Y-56382991D01*
X141477652Y-56365087D01*
X141403557Y-56226467D01*
X141386384Y-56169853D01*
X141352037Y-56056627D01*
X141334641Y-55880000D01*
X141352037Y-55703373D01*
X141403557Y-55533534D01*
X141403557Y-55533533D01*
X141487221Y-55377011D01*
X141487222Y-55377009D01*
X141516552Y-55341271D01*
X141599814Y-55239814D01*
X141701271Y-55156552D01*
X141737009Y-55127222D01*
X141754913Y-55117652D01*
X141893533Y-55043557D01*
X141950147Y-55026384D01*
X142063373Y-54992037D01*
X142129557Y-54985519D01*
X142195740Y-54979000D01*
X142284260Y-54979000D01*
X142350443Y-54985519D01*
X142350443Y-54985519D01*
G37*
G36*
X134730443Y-54985519D02*
X134796627Y-54992037D01*
X134909853Y-55026384D01*
X134966467Y-55043557D01*
X135105087Y-55117652D01*
X135122991Y-55127222D01*
X135158729Y-55156552D01*
X135260186Y-55239814D01*
X135343448Y-55341271D01*
X135372778Y-55377009D01*
X135372779Y-55377011D01*
X135456443Y-55533533D01*
X135456443Y-55533534D01*
X135507963Y-55703373D01*
X135525359Y-55880000D01*
X135507963Y-56056627D01*
X135473616Y-56169853D01*
X135456443Y-56226467D01*
X135382348Y-56365087D01*
X135372778Y-56382991D01*
X135343448Y-56418729D01*
X135260186Y-56520186D01*
X135158729Y-56603448D01*
X135122991Y-56632778D01*
X135122989Y-56632779D01*
X134966467Y-56716443D01*
X134909853Y-56733616D01*
X134796627Y-56767963D01*
X134730443Y-56774481D01*
X134664260Y-56781000D01*
X134575740Y-56781000D01*
X134509557Y-56774481D01*
X134443373Y-56767963D01*
X134330147Y-56733616D01*
X134273533Y-56716443D01*
X134117011Y-56632779D01*
X134117009Y-56632778D01*
X134081271Y-56603448D01*
X133979814Y-56520186D01*
X133896552Y-56418729D01*
X133867222Y-56382991D01*
X133857652Y-56365087D01*
X133783557Y-56226467D01*
X133766384Y-56169853D01*
X133732037Y-56056627D01*
X133714641Y-55880000D01*
X133732037Y-55703373D01*
X133783557Y-55533534D01*
X133783557Y-55533533D01*
X133867221Y-55377011D01*
X133867222Y-55377009D01*
X133896552Y-55341271D01*
X133979814Y-55239814D01*
X134081271Y-55156552D01*
X134117009Y-55127222D01*
X134134913Y-55117652D01*
X134273533Y-55043557D01*
X134330147Y-55026384D01*
X134443373Y-54992037D01*
X134509557Y-54985519D01*
X134575740Y-54979000D01*
X134664260Y-54979000D01*
X134730443Y-54985519D01*
X134730443Y-54985519D01*
G37*
G36*
X124570443Y-54985519D02*
X124636627Y-54992037D01*
X124749853Y-55026384D01*
X124806467Y-55043557D01*
X124945087Y-55117652D01*
X124962991Y-55127222D01*
X124998729Y-55156552D01*
X125100186Y-55239814D01*
X125183448Y-55341271D01*
X125212778Y-55377009D01*
X125212779Y-55377011D01*
X125296443Y-55533533D01*
X125296443Y-55533534D01*
X125347963Y-55703373D01*
X125365359Y-55880000D01*
X125347963Y-56056627D01*
X125313616Y-56169853D01*
X125296443Y-56226467D01*
X125222348Y-56365087D01*
X125212778Y-56382991D01*
X125183448Y-56418729D01*
X125100186Y-56520186D01*
X124998729Y-56603448D01*
X124962991Y-56632778D01*
X124962989Y-56632779D01*
X124806467Y-56716443D01*
X124749853Y-56733616D01*
X124636627Y-56767963D01*
X124570443Y-56774481D01*
X124504260Y-56781000D01*
X124415740Y-56781000D01*
X124349557Y-56774481D01*
X124283373Y-56767963D01*
X124170147Y-56733616D01*
X124113533Y-56716443D01*
X123957011Y-56632779D01*
X123957009Y-56632778D01*
X123921271Y-56603448D01*
X123819814Y-56520186D01*
X123736552Y-56418729D01*
X123707222Y-56382991D01*
X123697652Y-56365087D01*
X123623557Y-56226467D01*
X123606384Y-56169853D01*
X123572037Y-56056627D01*
X123554641Y-55880000D01*
X123572037Y-55703373D01*
X123623557Y-55533534D01*
X123623557Y-55533533D01*
X123707221Y-55377011D01*
X123707222Y-55377009D01*
X123736552Y-55341271D01*
X123819814Y-55239814D01*
X123921271Y-55156552D01*
X123957009Y-55127222D01*
X123974913Y-55117652D01*
X124113533Y-55043557D01*
X124170147Y-55026384D01*
X124283373Y-54992037D01*
X124349557Y-54985519D01*
X124415740Y-54979000D01*
X124504260Y-54979000D01*
X124570443Y-54985519D01*
X124570443Y-54985519D01*
G37*
G36*
X132190443Y-54985519D02*
X132256627Y-54992037D01*
X132369853Y-55026384D01*
X132426467Y-55043557D01*
X132565087Y-55117652D01*
X132582991Y-55127222D01*
X132618729Y-55156552D01*
X132720186Y-55239814D01*
X132803448Y-55341271D01*
X132832778Y-55377009D01*
X132832779Y-55377011D01*
X132916443Y-55533533D01*
X132916443Y-55533534D01*
X132967963Y-55703373D01*
X132985359Y-55880000D01*
X132967963Y-56056627D01*
X132933616Y-56169853D01*
X132916443Y-56226467D01*
X132842348Y-56365087D01*
X132832778Y-56382991D01*
X132803448Y-56418729D01*
X132720186Y-56520186D01*
X132618729Y-56603448D01*
X132582991Y-56632778D01*
X132582989Y-56632779D01*
X132426467Y-56716443D01*
X132369853Y-56733616D01*
X132256627Y-56767963D01*
X132190443Y-56774481D01*
X132124260Y-56781000D01*
X132035740Y-56781000D01*
X131969557Y-56774481D01*
X131903373Y-56767963D01*
X131790147Y-56733616D01*
X131733533Y-56716443D01*
X131577011Y-56632779D01*
X131577009Y-56632778D01*
X131541271Y-56603448D01*
X131439814Y-56520186D01*
X131356552Y-56418729D01*
X131327222Y-56382991D01*
X131317652Y-56365087D01*
X131243557Y-56226467D01*
X131226384Y-56169853D01*
X131192037Y-56056627D01*
X131174641Y-55880000D01*
X131192037Y-55703373D01*
X131243557Y-55533534D01*
X131243557Y-55533533D01*
X131327221Y-55377011D01*
X131327222Y-55377009D01*
X131356552Y-55341271D01*
X131439814Y-55239814D01*
X131541271Y-55156552D01*
X131577009Y-55127222D01*
X131594913Y-55117652D01*
X131733533Y-55043557D01*
X131790147Y-55026384D01*
X131903373Y-54992037D01*
X131969557Y-54985519D01*
X132035740Y-54979000D01*
X132124260Y-54979000D01*
X132190443Y-54985519D01*
X132190443Y-54985519D01*
G37*
G36*
X127110443Y-54985519D02*
X127176627Y-54992037D01*
X127289853Y-55026384D01*
X127346467Y-55043557D01*
X127485087Y-55117652D01*
X127502991Y-55127222D01*
X127538729Y-55156552D01*
X127640186Y-55239814D01*
X127723448Y-55341271D01*
X127752778Y-55377009D01*
X127752779Y-55377011D01*
X127836443Y-55533533D01*
X127836443Y-55533534D01*
X127887963Y-55703373D01*
X127905359Y-55880000D01*
X127887963Y-56056627D01*
X127853616Y-56169853D01*
X127836443Y-56226467D01*
X127762348Y-56365087D01*
X127752778Y-56382991D01*
X127723448Y-56418729D01*
X127640186Y-56520186D01*
X127538729Y-56603448D01*
X127502991Y-56632778D01*
X127502989Y-56632779D01*
X127346467Y-56716443D01*
X127289853Y-56733616D01*
X127176627Y-56767963D01*
X127110443Y-56774481D01*
X127044260Y-56781000D01*
X126955740Y-56781000D01*
X126889557Y-56774481D01*
X126823373Y-56767963D01*
X126710147Y-56733616D01*
X126653533Y-56716443D01*
X126497011Y-56632779D01*
X126497009Y-56632778D01*
X126461271Y-56603448D01*
X126359814Y-56520186D01*
X126276552Y-56418729D01*
X126247222Y-56382991D01*
X126237652Y-56365087D01*
X126163557Y-56226467D01*
X126146384Y-56169853D01*
X126112037Y-56056627D01*
X126094641Y-55880000D01*
X126112037Y-55703373D01*
X126163557Y-55533534D01*
X126163557Y-55533533D01*
X126247221Y-55377011D01*
X126247222Y-55377009D01*
X126276552Y-55341271D01*
X126359814Y-55239814D01*
X126461271Y-55156552D01*
X126497009Y-55127222D01*
X126514913Y-55117652D01*
X126653533Y-55043557D01*
X126710147Y-55026384D01*
X126823373Y-54992037D01*
X126889557Y-54985519D01*
X126955740Y-54979000D01*
X127044260Y-54979000D01*
X127110443Y-54985519D01*
X127110443Y-54985519D01*
G37*
G36*
X129650443Y-54985519D02*
X129716627Y-54992037D01*
X129829853Y-55026384D01*
X129886467Y-55043557D01*
X130025087Y-55117652D01*
X130042991Y-55127222D01*
X130078729Y-55156552D01*
X130180186Y-55239814D01*
X130263448Y-55341271D01*
X130292778Y-55377009D01*
X130292779Y-55377011D01*
X130376443Y-55533533D01*
X130376443Y-55533534D01*
X130427963Y-55703373D01*
X130445359Y-55880000D01*
X130427963Y-56056627D01*
X130393616Y-56169853D01*
X130376443Y-56226467D01*
X130302348Y-56365087D01*
X130292778Y-56382991D01*
X130263448Y-56418729D01*
X130180186Y-56520186D01*
X130078729Y-56603448D01*
X130042991Y-56632778D01*
X130042989Y-56632779D01*
X129886467Y-56716443D01*
X129829853Y-56733616D01*
X129716627Y-56767963D01*
X129650443Y-56774481D01*
X129584260Y-56781000D01*
X129495740Y-56781000D01*
X129429557Y-56774481D01*
X129363373Y-56767963D01*
X129250147Y-56733616D01*
X129193533Y-56716443D01*
X129037011Y-56632779D01*
X129037009Y-56632778D01*
X129001271Y-56603448D01*
X128899814Y-56520186D01*
X128816552Y-56418729D01*
X128787222Y-56382991D01*
X128777652Y-56365087D01*
X128703557Y-56226467D01*
X128686384Y-56169853D01*
X128652037Y-56056627D01*
X128634641Y-55880000D01*
X128652037Y-55703373D01*
X128703557Y-55533534D01*
X128703557Y-55533533D01*
X128787221Y-55377011D01*
X128787222Y-55377009D01*
X128816552Y-55341271D01*
X128899814Y-55239814D01*
X129001271Y-55156552D01*
X129037009Y-55127222D01*
X129054913Y-55117652D01*
X129193533Y-55043557D01*
X129250147Y-55026384D01*
X129363373Y-54992037D01*
X129429557Y-54985519D01*
X129495740Y-54979000D01*
X129584260Y-54979000D01*
X129650443Y-54985519D01*
X129650443Y-54985519D01*
G37*
G36*
X122030443Y-54985519D02*
X122096627Y-54992037D01*
X122209853Y-55026384D01*
X122266467Y-55043557D01*
X122405087Y-55117652D01*
X122422991Y-55127222D01*
X122458729Y-55156552D01*
X122560186Y-55239814D01*
X122643448Y-55341271D01*
X122672778Y-55377009D01*
X122672779Y-55377011D01*
X122756443Y-55533533D01*
X122756443Y-55533534D01*
X122807963Y-55703373D01*
X122825359Y-55880000D01*
X122807963Y-56056627D01*
X122773616Y-56169853D01*
X122756443Y-56226467D01*
X122682348Y-56365087D01*
X122672778Y-56382991D01*
X122643448Y-56418729D01*
X122560186Y-56520186D01*
X122458729Y-56603448D01*
X122422991Y-56632778D01*
X122422989Y-56632779D01*
X122266467Y-56716443D01*
X122209853Y-56733616D01*
X122096627Y-56767963D01*
X122030443Y-56774481D01*
X121964260Y-56781000D01*
X121875740Y-56781000D01*
X121809557Y-56774481D01*
X121743373Y-56767963D01*
X121630147Y-56733616D01*
X121573533Y-56716443D01*
X121417011Y-56632779D01*
X121417009Y-56632778D01*
X121381271Y-56603448D01*
X121279814Y-56520186D01*
X121196552Y-56418729D01*
X121167222Y-56382991D01*
X121157652Y-56365087D01*
X121083557Y-56226467D01*
X121066384Y-56169853D01*
X121032037Y-56056627D01*
X121014641Y-55880000D01*
X121032037Y-55703373D01*
X121083557Y-55533534D01*
X121083557Y-55533533D01*
X121167221Y-55377011D01*
X121167222Y-55377009D01*
X121196552Y-55341271D01*
X121279814Y-55239814D01*
X121381271Y-55156552D01*
X121417009Y-55127222D01*
X121434913Y-55117652D01*
X121573533Y-55043557D01*
X121630147Y-55026384D01*
X121743373Y-54992037D01*
X121809557Y-54985519D01*
X121875740Y-54979000D01*
X121964260Y-54979000D01*
X122030443Y-54985519D01*
X122030443Y-54985519D01*
G37*
G36*
X127110443Y-52445519D02*
X127176627Y-52452037D01*
X127289853Y-52486384D01*
X127346467Y-52503557D01*
X127485087Y-52577652D01*
X127502991Y-52587222D01*
X127538729Y-52616552D01*
X127640186Y-52699814D01*
X127723448Y-52801271D01*
X127752778Y-52837009D01*
X127752779Y-52837011D01*
X127836443Y-52993533D01*
X127836443Y-52993534D01*
X127887963Y-53163373D01*
X127905359Y-53340000D01*
X127887963Y-53516627D01*
X127853616Y-53629853D01*
X127836443Y-53686467D01*
X127762348Y-53825087D01*
X127752778Y-53842991D01*
X127723448Y-53878729D01*
X127640186Y-53980186D01*
X127538729Y-54063448D01*
X127502991Y-54092778D01*
X127502989Y-54092779D01*
X127346467Y-54176443D01*
X127289853Y-54193616D01*
X127176627Y-54227963D01*
X127110442Y-54234482D01*
X127044260Y-54241000D01*
X126955740Y-54241000D01*
X126889558Y-54234482D01*
X126823373Y-54227963D01*
X126710147Y-54193616D01*
X126653533Y-54176443D01*
X126497011Y-54092779D01*
X126497009Y-54092778D01*
X126461271Y-54063448D01*
X126359814Y-53980186D01*
X126276552Y-53878729D01*
X126247222Y-53842991D01*
X126237652Y-53825087D01*
X126163557Y-53686467D01*
X126146384Y-53629853D01*
X126112037Y-53516627D01*
X126094641Y-53340000D01*
X126112037Y-53163373D01*
X126163557Y-52993534D01*
X126163557Y-52993533D01*
X126247221Y-52837011D01*
X126247222Y-52837009D01*
X126276552Y-52801271D01*
X126359814Y-52699814D01*
X126461271Y-52616552D01*
X126497009Y-52587222D01*
X126514913Y-52577652D01*
X126653533Y-52503557D01*
X126710147Y-52486384D01*
X126823373Y-52452037D01*
X126889558Y-52445518D01*
X126955740Y-52439000D01*
X127044260Y-52439000D01*
X127110443Y-52445519D01*
X127110443Y-52445519D01*
G37*
G36*
X132190443Y-52445519D02*
X132256627Y-52452037D01*
X132369853Y-52486384D01*
X132426467Y-52503557D01*
X132565087Y-52577652D01*
X132582991Y-52587222D01*
X132618729Y-52616552D01*
X132720186Y-52699814D01*
X132803448Y-52801271D01*
X132832778Y-52837009D01*
X132832779Y-52837011D01*
X132916443Y-52993533D01*
X132916443Y-52993534D01*
X132967963Y-53163373D01*
X132985359Y-53340000D01*
X132967963Y-53516627D01*
X132933616Y-53629853D01*
X132916443Y-53686467D01*
X132842348Y-53825087D01*
X132832778Y-53842991D01*
X132803448Y-53878729D01*
X132720186Y-53980186D01*
X132618729Y-54063448D01*
X132582991Y-54092778D01*
X132582989Y-54092779D01*
X132426467Y-54176443D01*
X132369853Y-54193616D01*
X132256627Y-54227963D01*
X132190442Y-54234482D01*
X132124260Y-54241000D01*
X132035740Y-54241000D01*
X131969558Y-54234482D01*
X131903373Y-54227963D01*
X131790147Y-54193616D01*
X131733533Y-54176443D01*
X131577011Y-54092779D01*
X131577009Y-54092778D01*
X131541271Y-54063448D01*
X131439814Y-53980186D01*
X131356552Y-53878729D01*
X131327222Y-53842991D01*
X131317652Y-53825087D01*
X131243557Y-53686467D01*
X131226384Y-53629853D01*
X131192037Y-53516627D01*
X131174641Y-53340000D01*
X131192037Y-53163373D01*
X131243557Y-52993534D01*
X131243557Y-52993533D01*
X131327221Y-52837011D01*
X131327222Y-52837009D01*
X131356552Y-52801271D01*
X131439814Y-52699814D01*
X131541271Y-52616552D01*
X131577009Y-52587222D01*
X131594913Y-52577652D01*
X131733533Y-52503557D01*
X131790147Y-52486384D01*
X131903373Y-52452037D01*
X131969558Y-52445518D01*
X132035740Y-52439000D01*
X132124260Y-52439000D01*
X132190443Y-52445519D01*
X132190443Y-52445519D01*
G37*
G36*
X129650443Y-52445519D02*
X129716627Y-52452037D01*
X129829853Y-52486384D01*
X129886467Y-52503557D01*
X130025087Y-52577652D01*
X130042991Y-52587222D01*
X130078729Y-52616552D01*
X130180186Y-52699814D01*
X130263448Y-52801271D01*
X130292778Y-52837009D01*
X130292779Y-52837011D01*
X130376443Y-52993533D01*
X130376443Y-52993534D01*
X130427963Y-53163373D01*
X130445359Y-53340000D01*
X130427963Y-53516627D01*
X130393616Y-53629853D01*
X130376443Y-53686467D01*
X130302348Y-53825087D01*
X130292778Y-53842991D01*
X130263448Y-53878729D01*
X130180186Y-53980186D01*
X130078729Y-54063448D01*
X130042991Y-54092778D01*
X130042989Y-54092779D01*
X129886467Y-54176443D01*
X129829853Y-54193616D01*
X129716627Y-54227963D01*
X129650442Y-54234482D01*
X129584260Y-54241000D01*
X129495740Y-54241000D01*
X129429558Y-54234482D01*
X129363373Y-54227963D01*
X129250147Y-54193616D01*
X129193533Y-54176443D01*
X129037011Y-54092779D01*
X129037009Y-54092778D01*
X129001271Y-54063448D01*
X128899814Y-53980186D01*
X128816552Y-53878729D01*
X128787222Y-53842991D01*
X128777652Y-53825087D01*
X128703557Y-53686467D01*
X128686384Y-53629853D01*
X128652037Y-53516627D01*
X128634641Y-53340000D01*
X128652037Y-53163373D01*
X128703557Y-52993534D01*
X128703557Y-52993533D01*
X128787221Y-52837011D01*
X128787222Y-52837009D01*
X128816552Y-52801271D01*
X128899814Y-52699814D01*
X129001271Y-52616552D01*
X129037009Y-52587222D01*
X129054913Y-52577652D01*
X129193533Y-52503557D01*
X129250147Y-52486384D01*
X129363373Y-52452037D01*
X129429558Y-52445518D01*
X129495740Y-52439000D01*
X129584260Y-52439000D01*
X129650443Y-52445519D01*
X129650443Y-52445519D01*
G37*
G36*
X122030443Y-52445519D02*
X122096627Y-52452037D01*
X122209853Y-52486384D01*
X122266467Y-52503557D01*
X122405087Y-52577652D01*
X122422991Y-52587222D01*
X122458729Y-52616552D01*
X122560186Y-52699814D01*
X122643448Y-52801271D01*
X122672778Y-52837009D01*
X122672779Y-52837011D01*
X122756443Y-52993533D01*
X122756443Y-52993534D01*
X122807963Y-53163373D01*
X122825359Y-53340000D01*
X122807963Y-53516627D01*
X122773616Y-53629853D01*
X122756443Y-53686467D01*
X122682348Y-53825087D01*
X122672778Y-53842991D01*
X122643448Y-53878729D01*
X122560186Y-53980186D01*
X122458729Y-54063448D01*
X122422991Y-54092778D01*
X122422989Y-54092779D01*
X122266467Y-54176443D01*
X122209853Y-54193616D01*
X122096627Y-54227963D01*
X122030442Y-54234482D01*
X121964260Y-54241000D01*
X121875740Y-54241000D01*
X121809558Y-54234482D01*
X121743373Y-54227963D01*
X121630147Y-54193616D01*
X121573533Y-54176443D01*
X121417011Y-54092779D01*
X121417009Y-54092778D01*
X121381271Y-54063448D01*
X121279814Y-53980186D01*
X121196552Y-53878729D01*
X121167222Y-53842991D01*
X121157652Y-53825087D01*
X121083557Y-53686467D01*
X121066384Y-53629853D01*
X121032037Y-53516627D01*
X121014641Y-53340000D01*
X121032037Y-53163373D01*
X121083557Y-52993534D01*
X121083557Y-52993533D01*
X121167221Y-52837011D01*
X121167222Y-52837009D01*
X121196552Y-52801271D01*
X121279814Y-52699814D01*
X121381271Y-52616552D01*
X121417009Y-52587222D01*
X121434913Y-52577652D01*
X121573533Y-52503557D01*
X121630147Y-52486384D01*
X121743373Y-52452037D01*
X121809558Y-52445518D01*
X121875740Y-52439000D01*
X121964260Y-52439000D01*
X122030443Y-52445519D01*
X122030443Y-52445519D01*
G37*
G36*
X142350443Y-52445519D02*
X142416627Y-52452037D01*
X142529853Y-52486384D01*
X142586467Y-52503557D01*
X142725087Y-52577652D01*
X142742991Y-52587222D01*
X142778729Y-52616552D01*
X142880186Y-52699814D01*
X142963448Y-52801271D01*
X142992778Y-52837009D01*
X142992779Y-52837011D01*
X143076443Y-52993533D01*
X143076443Y-52993534D01*
X143127963Y-53163373D01*
X143145359Y-53340000D01*
X143127963Y-53516627D01*
X143093616Y-53629853D01*
X143076443Y-53686467D01*
X143002348Y-53825087D01*
X142992778Y-53842991D01*
X142963448Y-53878729D01*
X142880186Y-53980186D01*
X142778729Y-54063448D01*
X142742991Y-54092778D01*
X142742989Y-54092779D01*
X142586467Y-54176443D01*
X142529853Y-54193616D01*
X142416627Y-54227963D01*
X142350442Y-54234482D01*
X142284260Y-54241000D01*
X142195740Y-54241000D01*
X142129558Y-54234482D01*
X142063373Y-54227963D01*
X141950147Y-54193616D01*
X141893533Y-54176443D01*
X141737011Y-54092779D01*
X141737009Y-54092778D01*
X141701271Y-54063448D01*
X141599814Y-53980186D01*
X141516552Y-53878729D01*
X141487222Y-53842991D01*
X141477652Y-53825087D01*
X141403557Y-53686467D01*
X141386384Y-53629853D01*
X141352037Y-53516627D01*
X141334641Y-53340000D01*
X141352037Y-53163373D01*
X141403557Y-52993534D01*
X141403557Y-52993533D01*
X141487221Y-52837011D01*
X141487222Y-52837009D01*
X141516552Y-52801271D01*
X141599814Y-52699814D01*
X141701271Y-52616552D01*
X141737009Y-52587222D01*
X141754913Y-52577652D01*
X141893533Y-52503557D01*
X141950147Y-52486384D01*
X142063373Y-52452037D01*
X142129558Y-52445518D01*
X142195740Y-52439000D01*
X142284260Y-52439000D01*
X142350443Y-52445519D01*
X142350443Y-52445519D01*
G37*
G36*
X137270443Y-52445519D02*
X137336627Y-52452037D01*
X137449853Y-52486384D01*
X137506467Y-52503557D01*
X137645087Y-52577652D01*
X137662991Y-52587222D01*
X137698729Y-52616552D01*
X137800186Y-52699814D01*
X137883448Y-52801271D01*
X137912778Y-52837009D01*
X137912779Y-52837011D01*
X137996443Y-52993533D01*
X137996443Y-52993534D01*
X138047963Y-53163373D01*
X138065359Y-53340000D01*
X138047963Y-53516627D01*
X138013616Y-53629853D01*
X137996443Y-53686467D01*
X137922348Y-53825087D01*
X137912778Y-53842991D01*
X137883448Y-53878729D01*
X137800186Y-53980186D01*
X137698729Y-54063448D01*
X137662991Y-54092778D01*
X137662989Y-54092779D01*
X137506467Y-54176443D01*
X137449853Y-54193616D01*
X137336627Y-54227963D01*
X137270442Y-54234482D01*
X137204260Y-54241000D01*
X137115740Y-54241000D01*
X137049558Y-54234482D01*
X136983373Y-54227963D01*
X136870147Y-54193616D01*
X136813533Y-54176443D01*
X136657011Y-54092779D01*
X136657009Y-54092778D01*
X136621271Y-54063448D01*
X136519814Y-53980186D01*
X136436552Y-53878729D01*
X136407222Y-53842991D01*
X136397652Y-53825087D01*
X136323557Y-53686467D01*
X136306384Y-53629853D01*
X136272037Y-53516627D01*
X136254641Y-53340000D01*
X136272037Y-53163373D01*
X136323557Y-52993534D01*
X136323557Y-52993533D01*
X136407221Y-52837011D01*
X136407222Y-52837009D01*
X136436552Y-52801271D01*
X136519814Y-52699814D01*
X136621271Y-52616552D01*
X136657009Y-52587222D01*
X136674913Y-52577652D01*
X136813533Y-52503557D01*
X136870147Y-52486384D01*
X136983373Y-52452037D01*
X137049558Y-52445518D01*
X137115740Y-52439000D01*
X137204260Y-52439000D01*
X137270443Y-52445519D01*
X137270443Y-52445519D01*
G37*
G36*
X139810443Y-52445519D02*
X139876627Y-52452037D01*
X139989853Y-52486384D01*
X140046467Y-52503557D01*
X140185087Y-52577652D01*
X140202991Y-52587222D01*
X140238729Y-52616552D01*
X140340186Y-52699814D01*
X140423448Y-52801271D01*
X140452778Y-52837009D01*
X140452779Y-52837011D01*
X140536443Y-52993533D01*
X140536443Y-52993534D01*
X140587963Y-53163373D01*
X140605359Y-53340000D01*
X140587963Y-53516627D01*
X140553616Y-53629853D01*
X140536443Y-53686467D01*
X140462348Y-53825087D01*
X140452778Y-53842991D01*
X140423448Y-53878729D01*
X140340186Y-53980186D01*
X140238729Y-54063448D01*
X140202991Y-54092778D01*
X140202989Y-54092779D01*
X140046467Y-54176443D01*
X139989853Y-54193616D01*
X139876627Y-54227963D01*
X139810442Y-54234482D01*
X139744260Y-54241000D01*
X139655740Y-54241000D01*
X139589558Y-54234482D01*
X139523373Y-54227963D01*
X139410147Y-54193616D01*
X139353533Y-54176443D01*
X139197011Y-54092779D01*
X139197009Y-54092778D01*
X139161271Y-54063448D01*
X139059814Y-53980186D01*
X138976552Y-53878729D01*
X138947222Y-53842991D01*
X138937652Y-53825087D01*
X138863557Y-53686467D01*
X138846384Y-53629853D01*
X138812037Y-53516627D01*
X138794641Y-53340000D01*
X138812037Y-53163373D01*
X138863557Y-52993534D01*
X138863557Y-52993533D01*
X138947221Y-52837011D01*
X138947222Y-52837009D01*
X138976552Y-52801271D01*
X139059814Y-52699814D01*
X139161271Y-52616552D01*
X139197009Y-52587222D01*
X139214913Y-52577652D01*
X139353533Y-52503557D01*
X139410147Y-52486384D01*
X139523373Y-52452037D01*
X139589558Y-52445518D01*
X139655740Y-52439000D01*
X139744260Y-52439000D01*
X139810443Y-52445519D01*
X139810443Y-52445519D01*
G37*
G36*
X134730443Y-52445519D02*
X134796627Y-52452037D01*
X134909853Y-52486384D01*
X134966467Y-52503557D01*
X135105087Y-52577652D01*
X135122991Y-52587222D01*
X135158729Y-52616552D01*
X135260186Y-52699814D01*
X135343448Y-52801271D01*
X135372778Y-52837009D01*
X135372779Y-52837011D01*
X135456443Y-52993533D01*
X135456443Y-52993534D01*
X135507963Y-53163373D01*
X135525359Y-53340000D01*
X135507963Y-53516627D01*
X135473616Y-53629853D01*
X135456443Y-53686467D01*
X135382348Y-53825087D01*
X135372778Y-53842991D01*
X135343448Y-53878729D01*
X135260186Y-53980186D01*
X135158729Y-54063448D01*
X135122991Y-54092778D01*
X135122989Y-54092779D01*
X134966467Y-54176443D01*
X134909853Y-54193616D01*
X134796627Y-54227963D01*
X134730442Y-54234482D01*
X134664260Y-54241000D01*
X134575740Y-54241000D01*
X134509558Y-54234482D01*
X134443373Y-54227963D01*
X134330147Y-54193616D01*
X134273533Y-54176443D01*
X134117011Y-54092779D01*
X134117009Y-54092778D01*
X134081271Y-54063448D01*
X133979814Y-53980186D01*
X133896552Y-53878729D01*
X133867222Y-53842991D01*
X133857652Y-53825087D01*
X133783557Y-53686467D01*
X133766384Y-53629853D01*
X133732037Y-53516627D01*
X133714641Y-53340000D01*
X133732037Y-53163373D01*
X133783557Y-52993534D01*
X133783557Y-52993533D01*
X133867221Y-52837011D01*
X133867222Y-52837009D01*
X133896552Y-52801271D01*
X133979814Y-52699814D01*
X134081271Y-52616552D01*
X134117009Y-52587222D01*
X134134913Y-52577652D01*
X134273533Y-52503557D01*
X134330147Y-52486384D01*
X134443373Y-52452037D01*
X134509558Y-52445518D01*
X134575740Y-52439000D01*
X134664260Y-52439000D01*
X134730443Y-52445519D01*
X134730443Y-52445519D01*
G37*
G36*
X124570443Y-52445519D02*
X124636627Y-52452037D01*
X124749853Y-52486384D01*
X124806467Y-52503557D01*
X124945087Y-52577652D01*
X124962991Y-52587222D01*
X124998729Y-52616552D01*
X125100186Y-52699814D01*
X125183448Y-52801271D01*
X125212778Y-52837009D01*
X125212779Y-52837011D01*
X125296443Y-52993533D01*
X125296443Y-52993534D01*
X125347963Y-53163373D01*
X125365359Y-53340000D01*
X125347963Y-53516627D01*
X125313616Y-53629853D01*
X125296443Y-53686467D01*
X125222348Y-53825087D01*
X125212778Y-53842991D01*
X125183448Y-53878729D01*
X125100186Y-53980186D01*
X124998729Y-54063448D01*
X124962991Y-54092778D01*
X124962989Y-54092779D01*
X124806467Y-54176443D01*
X124749853Y-54193616D01*
X124636627Y-54227963D01*
X124570442Y-54234482D01*
X124504260Y-54241000D01*
X124415740Y-54241000D01*
X124349558Y-54234482D01*
X124283373Y-54227963D01*
X124170147Y-54193616D01*
X124113533Y-54176443D01*
X123957011Y-54092779D01*
X123957009Y-54092778D01*
X123921271Y-54063448D01*
X123819814Y-53980186D01*
X123736552Y-53878729D01*
X123707222Y-53842991D01*
X123697652Y-53825087D01*
X123623557Y-53686467D01*
X123606384Y-53629853D01*
X123572037Y-53516627D01*
X123554641Y-53340000D01*
X123572037Y-53163373D01*
X123623557Y-52993534D01*
X123623557Y-52993533D01*
X123707221Y-52837011D01*
X123707222Y-52837009D01*
X123736552Y-52801271D01*
X123819814Y-52699814D01*
X123921271Y-52616552D01*
X123957009Y-52587222D01*
X123974913Y-52577652D01*
X124113533Y-52503557D01*
X124170147Y-52486384D01*
X124283373Y-52452037D01*
X124349558Y-52445518D01*
X124415740Y-52439000D01*
X124504260Y-52439000D01*
X124570443Y-52445519D01*
X124570443Y-52445519D01*
G37*
G36*
X138061000Y-51701000D02*
X136259000Y-51701000D01*
X136259000Y-49899000D01*
X138061000Y-49899000D01*
X138061000Y-51701000D01*
X138061000Y-51701000D01*
G37*
G36*
X135521000Y-51701000D02*
X133719000Y-51701000D01*
X133719000Y-49899000D01*
X135521000Y-49899000D01*
X135521000Y-51701000D01*
X135521000Y-51701000D01*
G37*
G36*
X132981000Y-51701000D02*
X131179000Y-51701000D01*
X131179000Y-49899000D01*
X132981000Y-49899000D01*
X132981000Y-51701000D01*
X132981000Y-51701000D01*
G37*
G36*
X143141000Y-51701000D02*
X141339000Y-51701000D01*
X141339000Y-49899000D01*
X143141000Y-49899000D01*
X143141000Y-51701000D01*
X143141000Y-51701000D01*
G37*
G36*
X140601000Y-51701000D02*
X138799000Y-51701000D01*
X138799000Y-49899000D01*
X140601000Y-49899000D01*
X140601000Y-51701000D01*
X140601000Y-51701000D01*
G37*
G36*
X122821000Y-51701000D02*
X121019000Y-51701000D01*
X121019000Y-49899000D01*
X122821000Y-49899000D01*
X122821000Y-51701000D01*
X122821000Y-51701000D01*
G37*
G36*
X125361000Y-51701000D02*
X123559000Y-51701000D01*
X123559000Y-49899000D01*
X125361000Y-49899000D01*
X125361000Y-51701000D01*
X125361000Y-51701000D01*
G37*
G36*
X130441000Y-51701000D02*
X128639000Y-51701000D01*
X128639000Y-49899000D01*
X130441000Y-49899000D01*
X130441000Y-51701000D01*
X130441000Y-51701000D01*
G37*
G36*
X127901000Y-51701000D02*
X126099000Y-51701000D01*
X126099000Y-49899000D01*
X127901000Y-49899000D01*
X127901000Y-51701000D01*
X127901000Y-51701000D01*
G37*
M02*
