M48
;DRILL file {KiCad 5.0.2+dfsg1-1~bpo9+1} date Thu 29 Aug 2019 06:44:07 PM CEST
;FORMAT={-:-/ absolute / metric / decimal}
FMAT,2
METRIC,TZ
T1C1.000
%
G90
G05
T1
X124.46Y-50.8
X124.46Y-53.34
X124.46Y-55.88
X124.46Y-58.42
X124.46Y-60.96
X124.46Y-63.5
X124.46Y-66.04
X124.46Y-68.58
X124.46Y-71.12
X134.62Y-50.8
X134.62Y-53.34
X134.62Y-55.88
X134.62Y-58.42
X134.62Y-60.96
X134.62Y-63.5
X134.62Y-66.04
X134.62Y-68.58
X134.62Y-71.12
X142.24Y-50.8
X142.24Y-53.34
X142.24Y-55.88
X142.24Y-58.42
X142.24Y-60.96
X142.24Y-63.5
X142.24Y-66.04
X142.24Y-68.58
X142.24Y-71.12
X132.08Y-50.8
X132.08Y-53.34
X132.08Y-55.88
X132.08Y-58.42
X132.08Y-60.96
X132.08Y-63.5
X132.08Y-66.04
X132.08Y-68.58
X132.08Y-71.12
X129.54Y-50.8
X129.54Y-53.34
X129.54Y-55.88
X129.54Y-58.42
X129.54Y-60.96
X129.54Y-63.5
X129.54Y-66.04
X129.54Y-68.58
X129.54Y-71.12
X137.16Y-50.8
X137.16Y-53.34
X137.16Y-55.88
X137.16Y-58.42
X137.16Y-60.96
X137.16Y-63.5
X137.16Y-66.04
X137.16Y-68.58
X137.16Y-71.12
X127.Y-50.8
X127.Y-53.34
X127.Y-55.88
X127.Y-58.42
X127.Y-60.96
X127.Y-63.5
X127.Y-66.04
X127.Y-68.58
X127.Y-71.12
X139.7Y-50.8
X139.7Y-53.34
X139.7Y-55.88
X139.7Y-58.42
X139.7Y-60.96
X139.7Y-63.5
X139.7Y-66.04
X139.7Y-68.58
X139.7Y-71.12
X121.92Y-50.8
X121.92Y-53.34
X121.92Y-55.88
X121.92Y-58.42
X121.92Y-60.96
X121.92Y-63.5
X121.92Y-66.04
X121.92Y-68.58
X121.92Y-71.12
T0
M30
