%TF.GenerationSoftware,KiCad,Pcbnew,5.0.2+dfsg1-1~bpo9+1*%
%TF.CreationDate,2019-08-30T14:17:28+02:00*%
%TF.ProjectId,PROTOBOARD,50524f54-4f42-44f4-9152-442e6b696361,1.0*%
%TF.SameCoordinates,Original*%
%TF.FileFunction,Copper,L1,Top*%
%TF.FilePolarity,Positive*%
%FSLAX46Y46*%
G04 Gerber Fmt 4.6, Leading zero omitted, Abs format (unit mm)*
G04 Created by KiCad (PCBNEW 5.0.2+dfsg1-1~bpo9+1) date Fri 30 Aug 2019 02:17:28 PM CEST*
%MOMM*%
%LPD*%
G01*
G04 APERTURE LIST*
%ADD10C,0.150000*%
%ADD11R,1.700000X1.700000*%
%ADD12O,1.700000X1.700000*%
G04 APERTURE END LIST*
D10*
X119380000Y-49784000D02*
X119380000Y-72136000D01*
X143256000Y-48260000D02*
X120904000Y-48260000D01*
X144780000Y-72136000D02*
X144780000Y-49784000D01*
X120904000Y-73660000D02*
X143256000Y-73660000D01*
X143256000Y-48260000D02*
G75*
G02X144780000Y-49784000I0J-1524000D01*
G01*
X119380000Y-49784000D02*
G75*
G02X120904000Y-48260000I1524000J0D01*
G01*
X120904000Y-73660000D02*
G75*
G02X119380000Y-72136000I0J1524000D01*
G01*
X144780000Y-72136000D02*
G75*
G02X143256000Y-73660000I-1524000J0D01*
G01*
D11*
X142240000Y-50800000D03*
D12*
X142240000Y-53340000D03*
X142240000Y-55880000D03*
X142240000Y-58420000D03*
X142240000Y-60960000D03*
X142240000Y-63500000D03*
X142240000Y-66040000D03*
X142240000Y-68580000D03*
X142240000Y-71120000D03*
X139700000Y-71120000D03*
X139700000Y-68580000D03*
X139700000Y-66040000D03*
X139700000Y-63500000D03*
X139700000Y-60960000D03*
X139700000Y-58420000D03*
X139700000Y-55880000D03*
X139700000Y-53340000D03*
D11*
X139700000Y-50800000D03*
X137160000Y-50800000D03*
D12*
X137160000Y-53340000D03*
X137160000Y-55880000D03*
X137160000Y-58420000D03*
X137160000Y-60960000D03*
X137160000Y-63500000D03*
X137160000Y-66040000D03*
X137160000Y-68580000D03*
X137160000Y-71120000D03*
X134620000Y-71120000D03*
X134620000Y-68580000D03*
X134620000Y-66040000D03*
X134620000Y-63500000D03*
X134620000Y-60960000D03*
X134620000Y-58420000D03*
X134620000Y-55880000D03*
X134620000Y-53340000D03*
D11*
X134620000Y-50800000D03*
X132080000Y-50800000D03*
D12*
X132080000Y-53340000D03*
X132080000Y-55880000D03*
X132080000Y-58420000D03*
X132080000Y-60960000D03*
X132080000Y-63500000D03*
X132080000Y-66040000D03*
X132080000Y-68580000D03*
X132080000Y-71120000D03*
X129540000Y-71120000D03*
X129540000Y-68580000D03*
X129540000Y-66040000D03*
X129540000Y-63500000D03*
X129540000Y-60960000D03*
X129540000Y-58420000D03*
X129540000Y-55880000D03*
X129540000Y-53340000D03*
D11*
X129540000Y-50800000D03*
X127000000Y-50800000D03*
D12*
X127000000Y-53340000D03*
X127000000Y-55880000D03*
X127000000Y-58420000D03*
X127000000Y-60960000D03*
X127000000Y-63500000D03*
X127000000Y-66040000D03*
X127000000Y-68580000D03*
X127000000Y-71120000D03*
X124460000Y-71120000D03*
X124460000Y-68580000D03*
X124460000Y-66040000D03*
X124460000Y-63500000D03*
X124460000Y-60960000D03*
X124460000Y-58420000D03*
X124460000Y-55880000D03*
X124460000Y-53340000D03*
D11*
X124460000Y-50800000D03*
X121920000Y-50800000D03*
D12*
X121920000Y-53340000D03*
X121920000Y-55880000D03*
X121920000Y-58420000D03*
X121920000Y-60960000D03*
X121920000Y-63500000D03*
X121920000Y-66040000D03*
X121920000Y-68580000D03*
X121920000Y-71120000D03*
M02*
